<svg width="40" height="35" viewBox="0 0 40 35" fill="none" xmlns="http://www.w3.org/2000/svg">
<path d="M39.4285 28.7156L23.8132 2.13859C23.423 1.48747 22.8659 0.947589 22.1972 0.572465C21.5285 0.197342 20.7714 0 20.0009 0C19.2304 0 18.4733 0.197342 17.8046 0.572465C17.1359 0.947589 16.5788 1.48747 16.1886 2.13859L0.573315 28.7156C0.197863 29.3454 0 30.0617 0 30.7911C0 31.5205 0.197863 32.2368 0.573315 32.8665C0.958528 33.5216 1.51464 34.0644 2.18459 34.4393C2.85454 34.8142 3.6142 35.0076 4.38562 34.9998H35.6162C36.387 35.007 37.1459 34.8133 37.8152 34.4384C38.4844 34.0636 39.04 33.5211 39.4249 32.8665C39.8009 32.2371 39.9994 31.5209 40 30.7915C40.0006 30.0621 39.8034 29.3457 39.4285 28.7156ZM18.5724 14C18.5724 13.6287 18.7229 13.2726 18.9908 13.01C19.2587 12.7475 19.622 12.6 20.0009 12.6C20.3798 12.6 20.7431 12.7475 21.011 13.01C21.2789 13.2726 21.4294 13.6287 21.4294 14V20.9999C21.4294 21.3712 21.2789 21.7273 21.011 21.9898C20.7431 22.2524 20.3798 22.3999 20.0009 22.3999C19.622 22.3999 19.2587 22.2524 18.9908 21.9898C18.7229 21.7273 18.5724 21.3712 18.5724 20.9999V14ZM20.0009 29.3998C19.5771 29.3998 19.1628 29.2767 18.8104 29.0459C18.4581 28.8152 18.1834 28.4872 18.0213 28.1035C17.8591 27.7197 17.8166 27.2975 17.8993 26.8902C17.982 26.4828 18.1861 26.1086 18.4857 25.8149C18.7854 25.5213 19.1672 25.3212 19.5829 25.2402C19.9985 25.1592 20.4293 25.2008 20.8209 25.3597C21.2124 25.5187 21.5471 25.7878 21.7825 26.1332C22.018 26.4785 22.1436 26.8845 22.1436 27.2998C22.1436 27.8568 21.9179 28.3909 21.516 28.7848C21.1142 29.1786 20.5692 29.3998 20.0009 29.3998Z" fill="black"/>
</svg>
