<svg width="80" height="83" viewBox="0 0 80 83" fill="none" xmlns="http://www.w3.org/2000/svg">
<path d="M17.0569 1.37897C15.9019 1.84909 14.7143 3.07475 14.275 4.30039C13.9985 5.05593 13.9334 5.62678 13.9334 7.15464V9.06868L9.75242 9.11904L5.55516 9.16942L4.57905 9.65632C3.32639 10.2943 2.08998 11.5704 1.47178 12.8632L1 13.8705V42.6649V71.4593L1.47178 72.4667C2.08998 73.7595 3.32639 75.0355 4.57905 75.6735L5.55516 76.1604L25.0285 76.2108C44.3716 76.2444 44.5181 76.2444 44.8434 75.9086C45.2339 75.5056 45.2827 74.4479 44.941 73.961C44.7133 73.642 44.274 73.642 25.6955 73.558C7.84901 73.4741 6.66141 73.4573 6.04321 73.1718C5.16472 72.7689 4.36757 71.9462 3.94459 71.0395L3.60295 70.284L3.55414 49.0786L3.52161 27.89H39.9629H76.4042V39.6428C76.4042 51.1773 76.4042 51.3956 76.7295 51.7314C77.1688 52.1847 78.2425 52.1847 78.6818 51.7314C79.0071 51.3956 79.0071 51.2445 78.9746 32.6247L78.9258 13.8705L78.454 12.8632C77.8358 11.5704 76.5994 10.2943 75.3467 9.65632L74.3706 9.16942L70.1896 9.11904L65.9924 9.06868V7.15464C65.9924 4.73692 65.667 3.72954 64.5282 2.53747C61.9253 -0.132095 57.1749 0.824921 55.9222 4.30039C55.6457 5.05593 55.5806 5.62678 55.5806 7.15464V9.08546H50.3747H45.1688V7.15464C45.1688 5.62678 45.1037 5.05593 44.8272 4.30039C43.5745 0.824921 38.8241 -0.132095 36.2212 2.53747C35.0661 3.72954 34.757 4.73692 34.757 7.15464V9.08546H29.5511H24.3452V7.15464C24.3452 4.73692 24.0361 3.72954 22.881 2.53747C21.4331 1.05997 19.058 0.589859 17.0569 1.37897ZM20.4408 4.26681C20.7499 4.46828 21.1403 4.90482 21.3193 5.22382C21.6446 5.77789 21.6609 6.08011 21.6609 10.4286C21.6609 14.7772 21.6446 15.0794 21.3193 15.6335C20.2944 17.43 17.9842 17.43 16.9593 15.6335C16.634 15.0794 16.6177 14.7772 16.6177 10.4286C16.6177 6.08011 16.634 5.77789 16.9593 5.22382C17.4474 4.36755 18.2283 3.88065 19.1393 3.88065C19.6599 3.88065 20.0829 3.99818 20.4408 4.26681ZM41.2644 4.26681C41.5735 4.46828 41.9639 4.90482 42.1429 5.22382C42.4682 5.77789 42.4845 6.08011 42.4845 10.4286C42.4845 14.7772 42.4682 15.0794 42.1429 15.6335C41.118 17.43 38.8078 17.43 37.7829 15.6335C37.4576 15.0794 37.4413 14.7772 37.4413 10.4286C37.4413 6.08011 37.4576 5.77789 37.7829 5.22382C38.271 4.36755 39.0519 3.88065 39.9629 3.88065C40.4835 3.88065 40.9065 3.99818 41.2644 4.26681ZM62.088 4.26681C62.3971 4.46828 62.7875 4.90482 62.9665 5.22382C63.2918 5.77789 63.3081 6.08011 63.3081 10.4286C63.3081 14.7772 63.2918 15.0794 62.9665 15.6335C61.9415 17.43 59.6314 17.43 58.6065 15.6335C58.2811 15.0794 58.2649 14.7772 58.2649 10.4286C58.2649 6.08011 58.2811 5.77789 58.6065 5.22382C59.0946 4.36755 59.8755 3.88065 60.7865 3.88065C61.3071 3.88065 61.7301 3.99818 62.088 4.26681ZM13.9334 13.7026C13.9334 16.1204 14.2425 17.1277 15.3976 18.3198C18.0005 20.9894 22.7509 20.0324 24.0036 16.5569C24.2801 15.8014 24.3452 15.2305 24.3452 13.7026V11.7718H29.5511H34.757V13.7026C34.757 15.2305 34.8221 15.8014 35.0986 16.5569C36.3513 20.0324 41.1017 20.9894 43.7046 18.3198C44.8597 17.1277 45.1688 16.1204 45.1688 13.7026V11.7718H50.3747H55.5806V13.7026C55.5806 16.1204 55.8897 17.1277 57.0447 18.3198C59.6477 20.9894 64.3981 20.0324 65.6507 16.5569C65.9273 15.8014 65.9924 15.2305 65.9924 13.6859V11.7382L69.6202 11.8054C73.6548 11.8726 74.1591 11.9901 75.2166 13.1318C76.274 14.2903 76.3066 14.5085 76.3716 20.1163L76.4367 25.2036H39.9629H3.48907L3.55414 20.1163C3.61922 14.5085 3.65175 14.2735 4.7092 13.1486C5.81546 11.9565 6.44992 11.8222 10.7285 11.7886L13.9334 11.7718V13.7026Z" fill="black" stroke="black"/>
<path d="M58.0059 57.0713V66.8838H67.8183" stroke="black" stroke-width="3" stroke-linecap="round" stroke-linejoin="round"/>
<path d="M58.5088 47.0135C55.1737 47.769 52.6033 49.2297 50.1143 51.7985C47.5764 54.4177 46.1773 57.0705 45.4615 60.6299C44.9897 62.9469 45.1199 66.7918 45.7218 68.9073C46.6165 72.0302 48.0482 74.4815 50.2444 76.6809C52.3918 78.8468 54.5555 80.1396 57.4839 81.0462C59.5337 81.6675 63.2591 81.8018 65.5042 81.3149C68.9531 80.5761 71.5235 79.1322 74.0614 76.513C76.5993 73.8938 77.9983 71.241 78.7142 67.6816C79.1859 65.3646 79.0558 61.5198 78.4539 59.4043C77.5754 56.3821 76.3227 54.1491 74.2241 51.9329C72.0929 49.6662 69.7177 48.2055 66.6918 47.2653C64.7233 46.6609 60.6237 46.5266 58.5088 47.0135ZM65.6669 49.9685C67.2775 50.3882 69.8316 51.7314 71.1168 52.8563C77.494 58.3969 78.0146 68.1349 72.2719 74.3639C68.0746 78.9139 61.0141 80.106 55.613 77.1678C51.8875 75.1363 49.2195 71.6272 48.2597 67.5137C47.8204 65.5661 47.8204 62.7454 48.2597 60.7978C48.9592 57.8093 50.7813 54.8039 53.1077 52.8059C54.3441 51.7482 56.947 50.3714 58.5088 49.9517C60.6399 49.3808 63.4869 49.3808 65.6669 49.9685Z" fill="black" stroke="black"/>
<path d="M17.8214 42.8924C17.8214 43.8838 17.4276 44.8346 16.7265 45.5356C16.0255 46.2366 15.0747 46.6305 14.0833 46.6305C13.0919 46.6305 12.1411 46.2366 11.4401 45.5356C10.739 44.8346 10.3452 43.8838 10.3452 42.8924C10.3452 41.901 10.739 40.9502 11.4401 40.2492C12.1411 39.5481 13.0919 39.1543 14.0833 39.1543C15.0747 39.1543 16.0255 39.5481 16.7265 40.2492C17.4276 40.9502 17.8214 41.901 17.8214 42.8924ZM17.8214 57.8447C17.8214 58.8361 17.4276 59.7869 16.7265 60.488C16.0255 61.189 15.0747 61.5828 14.0833 61.5828C13.0919 61.5828 12.1411 61.189 11.4401 60.488C10.739 59.7869 10.3452 58.8361 10.3452 57.8447C10.3452 56.8533 10.739 55.9025 11.4401 55.2015C12.1411 54.5005 13.0919 54.1066 14.0833 54.1066C15.0747 54.1066 16.0255 54.5005 16.7265 55.2015C17.4276 55.9025 17.8214 56.8533 17.8214 57.8447ZM36.5118 42.8924C36.5118 43.8838 36.118 44.8346 35.417 45.5356C34.7159 46.2366 33.7651 46.6305 32.7737 46.6305C31.7823 46.6305 30.8315 46.2366 30.1305 45.5356C29.4295 44.8346 29.0356 43.8838 29.0356 42.8924C29.0356 41.901 29.4295 40.9502 30.1305 40.2492C30.8315 39.5481 31.7823 39.1543 32.7737 39.1543C33.7651 39.1543 34.7159 39.5481 35.417 40.2492C36.118 40.9502 36.5118 41.901 36.5118 42.8924ZM36.5118 57.8447C36.5118 58.8361 36.118 59.7869 35.417 60.488C34.7159 61.189 33.7651 61.5828 32.7737 61.5828C31.7823 61.5828 30.8315 61.189 30.1305 60.488C29.4295 59.7869 29.0356 58.8361 29.0356 57.8447C29.0356 56.8533 29.4295 55.9025 30.1305 55.2015C30.8315 54.5005 31.7823 54.1066 32.7737 54.1066C33.7651 54.1066 34.7159 54.5005 35.417 55.2015C36.118 55.9025 36.5118 56.8533 36.5118 57.8447ZM55.2022 42.8924C55.2022 43.8838 54.8084 44.8346 54.1074 45.5356C53.4064 46.2366 52.4556 46.6305 51.4642 46.6305C50.4728 46.6305 49.522 46.2366 48.8209 45.5356C48.1199 44.8346 47.7261 43.8838 47.7261 42.8924C47.7261 41.901 48.1199 40.9502 48.8209 40.2492C49.522 39.5481 50.4728 39.1543 51.4642 39.1543C52.4556 39.1543 53.4064 39.5481 54.1074 40.2492C54.8084 40.9502 55.2022 41.901 55.2022 42.8924Z" fill="black"/>
<path d="M72.3306 42.8927C72.3306 43.8841 71.9368 44.8349 71.2357 45.5359C70.5347 46.237 69.5839 46.6308 68.5925 46.6308C67.6011 46.6308 66.6503 46.237 65.9493 45.5359C65.2483 44.8349 64.8544 43.8841 64.8544 42.8927C64.8544 41.9013 65.2483 40.9505 65.9493 40.2495C66.6503 39.5485 67.6011 39.1546 68.5925 39.1546C69.5839 39.1546 70.5347 39.5485 71.2357 40.2495C71.9368 40.9505 72.3306 41.9013 72.3306 42.8927Z" fill="black"/>
</svg>
