<svg width="82" height="113" viewBox="0 0 82 113" fill="none" xmlns="http://www.w3.org/2000/svg">
<path fill-rule="evenodd" clip-rule="evenodd" d="M35.6296 18.3372C35.6296 20.5463 37.4204 22.3372 39.6296 22.3372C41.8387 22.3372 43.6296 20.5463 43.6296 18.3372V5C43.6296 2.79086 41.8387 1 39.6296 1C37.4204 1 35.6296 2.79086 35.6296 5V18.3372ZM60.9295 47.5563C60.9073 48.0034 60.8566 48.4471 60.7784 48.8851C62.512 48.3355 63.9507 47.7886 65.1447 47.3348C70.5282 45.2884 70.933 45.1345 70.933 55.1641L80.5238 67.802C81.7226 69.3505 80.5238 71.8481 78.4258 71.8481H70.933V86.8338C70.933 92.3785 66.4873 96.8242 60.9426 96.8242H55.9473V106.81C55.9473 109.571 53.7088 111.81 50.9473 111.81H25.9808C23.2194 111.81 20.9809 109.571 20.9809 106.81V88.3823C9.14219 82.7877 1 70.8491 1 56.8625C1 50.6415 1.60421 50.4232 13.3941 50.9438C13.1262 50.0631 12.9884 49.1447 12.9884 48.2173C12.9885 46.5543 13.4318 44.9207 14.2738 43.4807C15.1158 42.0406 16.3267 40.8449 17.7849 40.0137C19.2431 39.1824 20.8972 38.745 22.5808 38.7454H26.834C27.654 36.7302 28.9295 35.0772 30.6126 33.8695C32.7512 32.3326 35.3717 31.6411 38.1649 31.6411C41.9099 31.6411 45.2041 33.5237 47.1365 36.3773H50.1526C52.1065 36.3772 54.0236 36.9011 55.6995 37.8931C57.3755 38.8851 58.7472 40.308 59.6683 42.0099C60.5894 43.7118 61.0253 45.6288 60.9295 47.5563ZM57.9106 23.1773C55.8963 22.2701 54.9988 19.9018 55.906 17.8875L61.3828 5.72671C62.29 3.71243 64.6583 2.81492 66.6725 3.72208C68.6868 4.62925 69.5843 6.99755 68.6772 9.01183L63.2004 21.1727C62.2932 23.187 59.9249 24.0845 57.9106 23.1773ZM16.5985 21.337C17.3985 23.3962 19.7164 24.4169 21.7756 23.6169C23.8347 22.8169 24.8555 20.499 24.0555 18.4398L19.2254 6.00794C18.4254 3.94875 16.1075 2.92801 14.0484 3.72804C11.9892 4.52807 10.9684 6.84592 11.7685 8.90511L16.5985 21.337Z" fill="#A9D6FE"/>
<path d="M60.7784 48.8851L59.794 48.7093L59.503 50.3384L61.0806 49.8383L60.7784 48.8851ZM60.9295 47.5563L59.9307 47.5067V47.5067L60.9295 47.5563ZM65.1447 47.3348L65.5 48.2695L65.1447 47.3348ZM70.933 55.1641H69.933V55.5006L70.1364 55.7686L70.933 55.1641ZM80.5238 67.802L79.7272 68.4066L79.7331 68.4142L80.5238 67.802ZM70.933 71.8481V70.8481H69.933V71.8481H70.933ZM55.9473 96.8242V95.8242H54.9473V96.8242H55.9473ZM20.9809 88.3823H21.9809V87.7488L21.4081 87.4782L20.9809 88.3823ZM13.3941 50.9438L13.35 51.9428L14.7623 52.0052L14.3508 50.6528L13.3941 50.9438ZM12.9884 48.2173L11.9884 48.2172L12.9884 48.2173ZM14.2738 43.4807L15.1371 43.9854L15.1371 43.9854L14.2738 43.4807ZM17.7849 40.0137L17.2897 39.1449H17.2897L17.7849 40.0137ZM22.5808 38.7454L22.5806 39.7454H22.5808V38.7454ZM26.834 38.7454V39.7454H27.5068L27.7603 39.1223L26.834 38.7454ZM30.6126 33.8695L31.1956 34.682L31.1962 34.6815L30.6126 33.8695ZM47.1365 36.3773L46.3085 36.938L46.606 37.3773H47.1365V36.3773ZM50.1526 36.3773V37.3773H50.1527L50.1526 36.3773ZM55.6995 37.8931L56.2089 37.0325L56.2089 37.0325L55.6995 37.8931ZM59.6683 42.0099L58.7888 42.4859L59.6683 42.0099ZM55.906 17.8875L56.8178 18.2982L55.906 17.8875ZM57.9106 23.1773L58.3213 22.2655V22.2655L57.9106 23.1773ZM61.3828 5.72671L60.471 5.31607L61.3828 5.72671ZM66.6725 3.72208L66.2619 4.63388V4.63388L66.6725 3.72208ZM68.6772 9.01183L67.7654 8.60119V8.60119L68.6772 9.01183ZM63.2004 21.1727L64.1122 21.5833L63.2004 21.1727ZM16.5985 21.337L17.5306 20.9749L16.5985 21.337ZM24.0555 18.4398L24.9876 18.0777L24.0555 18.4398ZM19.2254 6.00794L20.1576 5.64579V5.64579L19.2254 6.00794ZM14.0484 3.72804L13.6862 2.79592V2.79592L14.0484 3.72804ZM11.7685 8.90511L12.7006 8.54296V8.54296L11.7685 8.90511ZM39.6296 21.3372C37.9727 21.3372 36.6296 19.9941 36.6296 18.3372H34.6296C34.6296 21.0986 36.8681 23.3372 39.6296 23.3372V21.3372ZM42.6296 18.3372C42.6296 19.9941 41.2864 21.3372 39.6296 21.3372V23.3372C42.391 23.3372 44.6296 21.0986 44.6296 18.3372H42.6296ZM42.6296 5V18.3372H44.6296V5H42.6296ZM39.6296 2C41.2864 2 42.6296 3.34314 42.6296 5H44.6296C44.6296 2.23858 42.391 0 39.6296 0V2ZM36.6296 5C36.6296 3.34314 37.9727 2 39.6296 2V0C36.8681 0 34.6296 2.23858 34.6296 5H36.6296ZM36.6296 18.3372V5H34.6296V18.3372H36.6296ZM61.7628 49.0609C61.8485 48.5814 61.9039 48.0955 61.9282 47.6059L59.9307 47.5067C59.9106 47.9113 59.8648 48.3129 59.794 48.7093L61.7628 49.0609ZM64.7893 46.4C63.5956 46.8538 62.1802 47.3916 60.4762 47.9318L61.0806 49.8383C62.8437 49.2794 64.3059 48.7234 65.5 48.2695L64.7893 46.4ZM71.933 55.1641C71.933 52.6635 71.9083 50.7483 71.7816 49.3326C71.6604 47.9782 71.4334 46.8335 70.8359 46.093C70.5027 45.6801 70.0738 45.413 69.5708 45.2947C69.0971 45.1834 68.6069 45.2153 68.1403 45.3007C67.2332 45.4667 66.096 45.9033 64.7893 46.4L65.5 48.2695C66.885 47.743 67.8173 47.393 68.5003 47.268C68.8286 47.2079 69.0136 47.2183 69.1131 47.2417C69.1832 47.2581 69.2255 47.2821 69.2794 47.3489C69.456 47.5678 69.6667 48.1373 69.7896 49.5109C69.9071 50.8233 69.933 52.65 69.933 55.1641H71.933ZM81.3204 67.1975L71.7296 54.5596L70.1364 55.7686L79.7272 68.4065L81.3204 67.1975ZM78.4258 72.8481C81.3224 72.8481 83.0419 69.4211 81.3145 67.1898L79.7331 68.4142C80.4034 69.28 79.7252 70.8481 78.4258 70.8481V72.8481ZM70.933 72.8481H78.4258V70.8481H70.933V72.8481ZM71.933 86.8338V71.8481H69.933V86.8338H71.933ZM60.9426 97.8242C67.0395 97.8242 71.933 92.9307 71.933 86.8338H69.933C69.933 91.8262 65.935 95.8242 60.9426 95.8242V97.8242ZM55.9473 97.8242H60.9426V95.8242H55.9473V97.8242ZM56.9473 106.81V96.8242H54.9473V106.81H56.9473ZM50.9473 112.81C54.2611 112.81 56.9473 110.124 56.9473 106.81H54.9473C54.9473 109.019 53.1565 110.81 50.9473 110.81V112.81ZM25.9808 112.81H50.9473V110.81H25.9808V112.81ZM19.9809 106.81C19.9809 110.124 22.6671 112.81 25.9808 112.81V110.81C23.7717 110.81 21.9809 109.019 21.9809 106.81H19.9809ZM19.9809 88.3823V106.81H21.9809V88.3823H19.9809ZM0 56.8625C0 71.251 8.37917 83.5331 20.5536 89.2864L21.4081 87.4782C9.90522 82.0422 2 70.4472 2 56.8625H0ZM13.4382 49.9448C10.4988 49.815 8.2139 49.729 6.45775 49.7745C4.72738 49.8193 3.36398 49.9915 2.3489 50.4708C1.23425 50.997 0.61955 51.8509 0.31356 52.978C0.0318855 54.0155 0 55.331 0 56.8625H2C2 55.2835 2.04364 54.2388 2.24369 53.502C2.41942 52.8547 2.69265 52.5202 3.20278 52.2793C3.81249 51.9915 4.81075 51.8179 6.50959 51.7738C8.18263 51.7304 10.3945 51.8123 13.35 51.9428L13.4382 49.9448ZM11.9884 48.2172C11.9884 49.2438 12.1409 50.2603 12.4374 51.2349L14.3508 50.6528C14.1114 49.8659 13.9884 49.0456 13.9884 48.2173L11.9884 48.2172ZM13.4105 42.9759C12.4793 44.5686 11.9885 46.3763 11.9884 48.2172L13.9884 48.2173C13.9885 46.7324 14.3843 45.2729 15.1371 43.9854L13.4105 42.9759ZM17.2897 39.1449C15.68 40.0625 14.3417 41.3834 13.4105 42.976L15.1371 43.9854C15.8899 42.6979 16.9735 41.6273 18.2801 40.8824L17.2897 39.1449ZM22.581 37.7454C20.7242 37.745 18.8993 38.2274 17.2897 39.1449L18.2801 40.8824C19.5869 40.1375 21.0701 39.7451 22.5806 39.7454L22.581 37.7454ZM26.834 37.7454H22.5808V39.7454H26.834V37.7454ZM30.0296 33.057C28.1837 34.3816 26.7942 36.1899 25.9078 38.3685L27.7603 39.1223C28.5138 37.2704 29.6753 35.7729 31.1956 34.682L30.0296 33.057ZM38.1649 30.6411C35.2094 30.6411 32.3723 31.3734 30.029 33.0574L31.1962 34.6815C33.1301 33.2917 35.534 32.6411 38.1649 32.6411V30.6411ZM47.9645 35.8166C45.8521 32.6972 42.2522 30.6411 38.1649 30.6411V32.6411C41.5675 32.6411 44.5561 34.3503 46.3085 36.938L47.9645 35.8166ZM50.1526 35.3773H47.1365V37.3773H50.1526V35.3773ZM56.2089 37.0325C54.3782 35.9489 52.285 35.3771 50.1526 35.3773L50.1527 37.3773C51.9279 37.3772 53.669 37.8532 55.1902 38.7536L56.2089 37.0325ZM60.5477 41.5339C59.5398 39.6716 58.0397 38.1162 56.2089 37.0325L55.1902 38.7536C56.7112 39.654 57.9545 40.9444 58.7888 42.4859L60.5477 41.5339ZM61.9282 47.606C62.0332 45.4951 61.5557 43.3963 60.5477 41.5339L58.7888 42.4859C59.623 44.0273 60.0174 45.7625 59.9307 47.5067L61.9282 47.606ZM54.9942 17.4769C53.8603 19.9948 54.9821 22.9551 57.5 24.0891L58.3213 22.2655C56.8106 21.5851 56.1374 19.8089 56.8178 18.2982L54.9942 17.4769ZM60.471 5.31607L54.9942 17.4769L56.8178 18.2982L62.2946 6.13735L60.471 5.31607ZM67.0832 2.81029C64.5653 1.67634 61.6049 2.79821 60.471 5.31607L62.2946 6.13735C62.975 4.62664 64.7512 3.95351 66.2619 4.63388L67.0832 2.81029ZM69.589 9.42248C70.7229 6.90461 69.601 3.94424 67.0832 2.81029L66.2619 4.63388C67.7726 5.31425 68.4458 7.09048 67.7654 8.60119L69.589 9.42248ZM64.1122 21.5833L69.589 9.42247L67.7654 8.60119L62.2886 20.762L64.1122 21.5833ZM57.5 24.0891C60.0179 25.223 62.9782 24.1012 64.1122 21.5833L62.2886 20.762C61.6082 22.2727 59.832 22.9459 58.3213 22.2655L57.5 24.0891ZM21.4134 22.6848C19.869 23.2848 18.1306 22.5192 17.5306 20.9749L15.6664 21.6991C16.6664 24.2731 19.5637 25.5491 22.1377 24.549L21.4134 22.6848ZM23.1233 18.802C23.7234 20.3464 22.9578 22.0848 21.4134 22.6848L22.1377 24.549C24.7117 23.549 25.9876 20.6517 24.9876 18.0777L23.1233 18.802ZM18.2933 6.37008L23.1233 18.802L24.9876 18.0777L20.1576 5.64579L18.2933 6.37008ZM14.4105 4.66016C15.9549 4.06013 17.6933 4.82569 18.2933 6.37008L20.1576 5.64579C19.1575 3.07181 16.2602 1.79588 13.6862 2.79592L14.4105 4.66016ZM12.7006 8.54296C12.1006 6.99857 12.8661 5.26018 14.4105 4.66016L13.6862 2.79592C11.1122 3.79596 9.8363 6.69327 10.8363 9.26725L12.7006 8.54296ZM17.5306 20.9749L12.7006 8.54296L10.8363 9.26725L15.6664 21.6991L17.5306 20.9749Z" fill="black"/>
</svg>
