<svg width="31" height="28" viewBox="0 0 31 28" fill="none" xmlns="http://www.w3.org/2000/svg">
<path d="M25.7039 1.18788C26.2299 0.631243 26.9297 0.32351 27.6559 0.329618C28.382 0.335726 29.0776 0.655199 29.5959 1.22062C30.1142 1.78605 30.4146 2.5532 30.4338 3.3602C30.453 4.1672 30.1894 4.95093 29.6988 5.54601L14.8022 26.2575C14.546 26.5642 14.2369 26.8103 13.8932 26.9812C13.5495 27.1521 13.1784 27.2441 12.802 27.2519C12.4255 27.2596 12.0516 27.1829 11.7025 27.0263C11.3533 26.8697 11.0362 26.6365 10.77 26.3405L0.891213 15.358C0.616105 15.073 0.395448 14.7294 0.242406 14.3475C0.0893628 13.9657 0.00706936 13.5534 0.000435771 13.1355C-0.00619782 12.7175 0.0629645 12.3023 0.203795 11.9147C0.344626 11.5271 0.554241 11.175 0.820135 10.8794C1.08603 10.5838 1.40275 10.3507 1.75142 10.1942C2.10008 10.0376 2.47354 9.96071 2.84951 9.96809C3.22548 9.97546 3.59627 10.0669 3.93974 10.2371C4.28322 10.4072 4.59235 10.6525 4.8487 10.9584L12.6666 19.6456L25.633 1.2792L25.7039 1.18788Z" fill="black"/>
</svg>
