<svg width="84" height="84" viewBox="0 0 84 84" fill="none" xmlns="http://www.w3.org/2000/svg">
<path d="M53.0649 18.5092L53.6994 18.1934L53.6116 17.4901C53.2425 14.5331 53.7862 11.534 55.171 8.89159C56.5557 6.24913 58.7161 4.08818 61.3655 2.69678C64.015 1.30536 67.0275 0.749692 70.0024 1.10404C72.9773 1.45838 75.7727 2.70584 78.0172 4.67983C80.2616 6.65377 81.8486 9.26056 82.568 12.1532C83.2873 15.0458 83.1051 18.0879 82.0455 20.8751C80.9859 23.6623 79.0988 26.0631 76.6344 27.7578C74.17 29.4524 71.2452 30.3604 68.2491 30.3603C64.2637 30.3603 60.6562 28.794 58.0116 26.2492L57.5037 25.7605L56.8726 26.0746L30.9369 38.9846L30.3024 39.3004L30.3902 40.0037C30.5402 41.2057 30.5402 42.4216 30.3902 43.6237L30.3024 44.327L30.9369 44.6428L56.8726 57.5528L57.5027 57.8664L58.0106 57.3791C60.5155 54.9754 63.794 53.53 67.267 53.2994C70.74 53.0688 74.1826 54.0679 76.9863 56.1194C79.7899 58.1708 81.7739 61.1422 82.5889 64.5077C83.4038 67.8731 82.9975 71.417 81.4415 74.5134C79.8854 77.61 77.2793 80.0602 74.0827 81.4301C70.8861 82.8001 67.3057 83.001 63.9745 81.9972C60.6433 80.9934 57.7769 78.8499 55.881 75.9467C53.9852 73.0437 53.1816 69.5674 53.6116 66.1323L53.6996 65.4288L53.0649 65.1129L27.1292 52.2029L26.4989 51.8892L25.9911 52.3768C23.9077 54.3768 21.2788 55.7229 18.4316 56.2467C15.5843 56.7704 12.6453 56.4486 9.98069 55.3215C7.31616 54.1945 5.04432 52.3121 3.44768 49.9097C1.85106 47.5073 1 44.6908 1 41.8111C1 38.9313 1.85106 36.1148 3.44768 33.7125C5.04432 31.31 7.31616 29.4277 9.98069 28.3006C12.6453 27.1735 15.5843 26.8517 18.4316 27.3755C21.2788 27.8993 23.9077 29.2453 25.9911 31.2454L26.4989 31.733L27.1292 31.4192L53.0649 18.5092Z" fill="#97C87C" stroke="black" stroke-width="2"/>
</svg>
