<svg width="72" height="84" viewBox="0 0 72 84" fill="none" xmlns="http://www.w3.org/2000/svg">
<path d="M57.9982 40.8224H58C59.6803 40.8224 61.3484 40.6089 63 40.2518V59.7336V60.1492L63.2945 60.4423L71 68.1136V70.6804H1V68.1136L8.70553 60.4423L9 60.1492V59.7336V35.8402C9 23.939 16.8277 13.4576 28.2829 10.0785L29 9.86697V9.11935V7.9645C29 4.14051 32.1481 1.00002 36 1.00002L36.0023 1.00002C37.0026 0.997695 37.9907 1.21759 38.8946 1.6435C39.5403 1.9478 40.1313 2.35174 40.6465 2.83871C37.1676 6.87238 35 12.1338 35 17.9201V17.9219C35.0111 23.9936 37.4387 29.8125 41.7498 34.1044C46.0607 38.3962 51.9035 40.8114 57.9982 40.8224ZM71 17.9201C71 25.0494 65.1719 30.858 58 30.858C50.8281 30.858 45 25.0494 45 17.9201C45 10.7909 50.8281 4.98226 58 4.98226C65.1719 4.98226 71 10.7909 71 17.9201ZM42.9295 76.6626C42.4473 80.0478 39.5497 82.6271 36 82.6271C34.1421 82.6271 32.3611 81.8923 31.0487 80.5857C29.9757 79.5175 29.2878 78.1388 29.0725 76.6626H42.9295Z" fill="#FF8C45" stroke="black" stroke-width="2"/>
</svg>
