<svg width="330" height="58" viewBox="0 0 330 58" fill="none" xmlns="http://www.w3.org/2000/svg">
<g clip-path="url(#clip0_292_148)">
<path fill-rule="evenodd" clip-rule="evenodd" d="M314.444 46.8599C313.446 47.0119 312.521 47.0879 311.672 47.0879C309.823 47.0879 308.5 46.7839 307.7 46.1759C306.951 45.5172 306.576 44.6812 306.576 43.6679C306.576 42.6546 307.026 41.8946 307.925 41.3879C308.824 40.8812 309.973 40.5772 311.372 40.4759L316.767 40.0199V46.0999C316.267 46.4039 315.493 46.6572 314.444 46.8599ZM318.416 18.0559C316.218 17.4986 313.77 17.2199 311.072 17.2199C309.324 17.2199 307.451 17.3466 305.452 17.5999C304.984 17.6593 304.488 17.7444 303.981 17.8477C301.646 18.3235 298.814 18.2687 297.85 16.0609C297.815 15.9816 297.8 15.9374 297.8 15.9374H289.604C289.604 15.9374 289.225 21.1057 290.19 23.0624C290.219 23.1227 290.253 23.1957 290.292 23.28C290.731 24.238 291.83 26.6406 295.608 28.1201C297.661 28.924 299.924 28.4955 302.045 27.9032C302.589 27.7516 303.149 27.6105 303.729 27.4799C305.527 27.0746 307.376 26.8719 309.274 26.8719C311.672 26.8719 313.495 27.2012 314.744 27.8599C316.043 28.4679 316.692 29.5066 316.692 30.9759V31.5079L306.876 32.5719C302.58 33.0279 299.408 34.1932 297.36 36.0679C295.312 37.9426 294.288 40.6279 294.288 44.1239C294.288 46.2012 294.687 48.0252 295.486 49.5959C296.335 51.1666 297.51 52.4586 299.008 53.4719C300.557 54.4852 302.38 55.2452 304.478 55.7519C306.627 56.2586 309.025 56.5119 311.672 56.5119C317.567 56.5119 322.138 55.5239 325.384 53.5479C326.383 52.9399 327.233 52.2306 327.932 51.4199C328.682 50.5586 329.056 49.4692 329.056 48.1519V31.1279C329.056 28.7466 328.631 26.6946 327.782 24.9719C326.933 23.1986 325.709 21.7546 324.111 20.6399C322.562 19.4746 320.664 18.6132 318.416 18.0559Z" fill="black"/>
<path d="M312.721 2.32388C313.62 2.57721 314.37 2.77988 314.969 2.93188C315.569 3.08388 316.068 3.15988 316.468 3.15988C317.567 3.15988 318.416 2.83054 319.015 2.17188C319.615 1.51321 320.04 0.955879 320.289 0.499878C322.037 0.499878 323.487 1.08254 324.635 2.24788C325.834 3.36254 326.434 4.80654 326.434 6.57988C326.434 8.85988 325.735 10.5319 324.336 11.5959C322.937 12.6599 321.188 13.1919 319.09 13.1919C318.391 13.1919 317.691 13.1666 316.992 13.1159C316.293 13.0146 315.518 12.8372 314.669 12.5839L311.672 11.6719C310.973 11.4692 309.423 10.695 308.923 10.5936C307.004 9.94476 305 8.69219 302.976 8.72188C302.698 8.72597 302.416 8.73915 302.137 8.75984C299.999 8.91832 298.443 10.3984 298.002 12.5262C297.877 13.1226 297.8 13.5624 297.8 13.5624H294.288H289.604C289.604 9.61964 290.032 7.62429 290.884 6.40071C291.974 4.8377 293.722 3.83154 295.385 2.92316C295.656 2.77442 295.949 2.63183 296.264 2.49708C297.977 1.76586 299.867 1.30227 301.717 1.12251C302.158 1.07957 302.551 1.03322 302.81 0.955876H305.902C306.552 0.955876 307.326 1.03188 308.225 1.18388C309.175 1.33588 310.673 1.71588 312.721 2.32388Z" fill="#EF797E"/>
<path d="M285.637 55.4099C285.137 55.5619 284.338 55.7139 283.239 55.8659C282.19 56.0179 281.09 56.0939 279.942 56.0939C278.842 56.0939 277.844 56.0179 276.944 55.8659C276.096 55.7139 275.371 55.4099 274.771 54.9539C274.172 54.4979 273.698 53.8899 273.348 53.1299C273.048 52.3192 272.898 51.2806 272.898 50.0139V33.1419C272.898 31.0646 272.373 29.6206 271.324 28.8099C270.326 27.9486 269.076 27.5179 267.578 27.5179C266.579 27.5179 265.63 27.6446 264.73 27.8979C263.831 28.1512 263.106 28.4552 262.557 28.8099V55.4099C262.057 55.5619 261.259 55.7139 260.16 55.8659C259.11 56.0179 258.011 56.0939 256.862 56.0939C255.763 56.0939 254.764 56.0179 253.865 55.8659C253.016 55.7139 252.292 55.4099 251.692 54.9539C251.093 54.4979 250.619 53.8899 250.268 53.1299C249.969 52.3192 249.819 51.2806 249.819 50.0139V5.93388C250.368 5.83254 251.168 5.70588 252.217 5.55388C253.316 5.35121 254.414 5.24988 255.514 5.24988C256.613 5.24988 257.587 5.32588 258.436 5.47788C259.335 5.62988 260.085 5.93388 260.684 6.38988C261.284 6.84588 261.733 7.47921 262.033 8.28988C262.383 9.04988 262.557 10.0632 262.557 11.3299V18.7779C263.207 18.5246 264.181 18.2459 265.48 17.9419C266.829 17.5872 268.303 17.4099 269.901 17.4099C274.846 17.4099 278.692 18.6766 281.44 21.2099C284.237 23.6926 285.637 27.4166 285.637 32.3819V55.4099Z" fill="black"/>
<path d="M233.568 31.7929C233.568 30.2222 233.118 29.0822 232.219 28.3729C231.369 27.6129 230.196 27.2329 228.697 27.2329C227.697 27.2329 226.699 27.3596 225.7 27.6129C224.75 27.8662 223.926 28.2462 223.227 28.7529V55.1249C222.727 55.2769 221.928 55.4289 220.829 55.5809C219.78 55.7329 218.681 55.8089 217.532 55.8089C216.433 55.8089 215.434 55.7329 214.535 55.5809C213.685 55.4289 212.962 55.1249 212.362 54.6689C211.763 54.2129 211.287 53.6049 210.938 52.8449C210.639 52.0342 210.489 50.9956 210.489 49.7289V26.9289C210.489 25.5609 210.763 24.4462 211.313 23.5849C211.912 22.7236 212.711 21.9382 213.711 21.2289C215.409 20.0129 217.532 19.0249 220.08 18.2649C222.677 17.5049 225.55 17.1249 228.697 17.1249C234.342 17.1249 238.688 18.3916 241.736 20.9249C244.782 23.4076 246.306 26.8782 246.306 31.3369V55.1249C245.807 55.2769 245.007 55.4289 243.909 55.5809C242.86 55.7329 241.76 55.8089 240.612 55.8089C239.512 55.8089 238.513 55.7329 237.614 55.5809C236.764 55.4289 236.041 55.1249 235.441 54.6689C234.842 54.2129 234.366 53.6049 234.018 52.8449C233.718 52.0342 233.568 50.9956 233.568 49.7289V31.7929Z" fill="black"/>
<path d="M189.592 46.9929C190.441 46.9929 191.364 46.9169 192.364 46.7649C193.413 46.5622 194.187 46.3089 194.687 46.0049V39.9249L189.292 40.3809C187.893 40.4822 186.744 40.7862 185.845 41.2929C184.946 41.7996 184.496 42.5596 184.496 43.5729C184.496 44.5862 184.871 45.4222 185.62 46.0809C186.419 46.6889 187.743 46.9929 189.592 46.9929ZM188.992 17.1249C191.69 17.1249 194.137 17.4036 196.336 17.9609C198.584 18.5182 200.482 19.3796 202.031 20.5449C203.629 21.6596 204.852 23.1036 205.702 24.8769C206.551 26.5996 206.976 28.6516 206.976 31.0329V48.0569C206.976 49.3742 206.601 50.4636 205.852 51.3249C205.152 52.1356 204.303 52.8449 203.304 53.4529C200.057 55.4289 195.486 56.4169 189.592 56.4169C186.943 56.4169 184.546 56.1636 182.398 55.6569C180.3 55.1502 178.476 54.3902 176.928 53.3769C175.43 52.3636 174.255 51.0716 173.406 49.5009C172.607 47.9302 172.208 46.1062 172.208 44.0289C172.208 40.5329 173.231 37.8476 175.28 35.9729C177.328 34.0982 180.499 32.9329 184.796 32.4769L194.612 31.4129V30.8809C194.612 29.4116 193.962 28.3729 192.664 27.7649C191.415 27.1062 189.592 26.7769 187.194 26.7769C185.295 26.7769 183.447 26.9796 181.649 27.3849C179.851 27.7902 178.227 28.2969 176.778 28.9049C176.129 28.4489 175.579 27.7649 175.13 26.8529C174.68 25.8902 174.455 24.9022 174.455 23.8889C174.455 22.5716 174.755 21.5329 175.355 20.7729C176.003 19.9622 176.977 19.2782 178.277 18.7209C179.725 18.1636 181.424 17.7582 183.372 17.5049C185.37 17.2516 187.243 17.1249 188.992 17.1249Z" fill="black"/>
<path d="M130.555 17.1249C132.602 17.1249 134.601 17.4289 136.549 18.0369C138.548 18.5942 140.271 19.4556 141.72 20.6209C143.218 19.6076 144.891 18.7716 146.74 18.1129C148.638 17.4542 150.912 17.1249 153.559 17.1249C155.457 17.1249 157.306 17.3782 159.104 17.8849C160.953 18.3916 162.575 19.2022 163.975 20.3169C165.423 21.3809 166.573 22.8249 167.421 24.6489C168.27 26.4222 168.695 28.6009 168.695 31.1849V55.1249C168.195 55.2769 167.397 55.4289 166.297 55.5809C165.248 55.7329 164.149 55.8089 163 55.8089C161.901 55.8089 160.902 55.7329 160.003 55.5809C159.154 55.4289 158.43 55.1249 157.83 54.6689C157.231 54.2129 156.756 53.6049 156.406 52.8449C156.107 52.0342 155.957 50.9956 155.957 49.7289V31.5649C155.957 30.0449 155.532 28.9556 154.683 28.2969C153.834 27.5876 152.684 27.2329 151.236 27.2329C150.537 27.2329 149.788 27.4102 148.988 27.7649C148.188 28.0689 147.589 28.3982 147.19 28.7529C147.24 28.9556 147.265 29.1582 147.265 29.3609C147.265 29.5129 147.265 29.6649 147.265 29.8169V55.1249C146.715 55.2769 145.891 55.4289 144.792 55.5809C143.743 55.7329 142.669 55.8089 141.57 55.8089C140.47 55.8089 139.472 55.7329 138.572 55.5809C137.724 55.4289 136.999 55.1249 136.399 54.6689C135.8 54.2129 135.326 53.6049 134.976 52.8449C134.676 52.0342 134.526 50.9956 134.526 49.7289V31.5649C134.526 30.0449 134.052 28.9556 133.102 28.2969C132.203 27.5876 131.104 27.2329 129.805 27.2329C128.906 27.2329 128.132 27.3849 127.482 27.6889C126.833 27.9422 126.284 28.1956 125.834 28.4489V55.1249C125.334 55.2769 124.536 55.4289 123.436 55.5809C122.387 55.7329 121.288 55.8089 120.139 55.8089C119.04 55.8089 118.041 55.7329 117.142 55.5809C116.292 55.4289 115.568 55.1249 114.969 54.6689C114.369 54.2129 113.895 53.6049 113.545 52.8449C113.245 52.0342 113.095 50.9956 113.095 49.7289V26.7769C113.095 25.4089 113.37 24.3196 113.919 23.5089C114.519 22.6982 115.318 21.9382 116.317 21.2289C118.016 20.0129 120.115 19.0249 122.612 18.2649C125.16 17.5049 127.807 17.1249 130.555 17.1249Z" fill="black"/>
<path d="M92.1983 46.9929C93.0475 46.9929 93.9717 46.9169 94.9708 46.7649C96.0198 46.5622 96.7941 46.3089 97.2937 46.0049V39.9249L91.8985 40.3809C90.4998 40.4822 89.3508 40.7862 88.4517 41.2929C87.5525 41.7996 87.1029 42.5596 87.1029 43.5729C87.1029 44.5862 87.4775 45.4222 88.2269 46.0809C89.0262 46.6889 90.3499 46.9929 92.1983 46.9929ZM91.5988 17.1249C94.2964 17.1249 96.7442 17.4036 98.9422 17.9609C101.19 18.5182 103.088 19.3796 104.637 20.5449C106.236 21.6596 107.46 23.1036 108.309 24.8769C109.158 26.5996 109.583 28.6516 109.583 31.0329V48.0569C109.583 49.3742 109.208 50.4636 108.459 51.3249C107.759 52.1356 106.91 52.8449 105.911 53.4529C102.664 55.4289 98.093 56.4169 92.1983 56.4169C89.5507 56.4169 87.1529 56.1636 85.0048 55.6569C82.9067 55.1502 81.0833 54.3902 79.5347 53.3769C78.0361 52.3636 76.8621 51.0716 76.0129 49.5009C75.2136 47.9302 74.814 46.1062 74.814 44.0289C74.814 40.5329 75.8381 37.8476 77.8862 35.9729C79.9343 34.0982 83.1065 32.9329 87.4026 32.4769L97.2187 31.4129V30.8809C97.2187 29.4116 96.5693 28.3729 95.2705 27.7649C94.0216 27.1062 92.1983 26.7769 89.8004 26.7769C87.9022 26.7769 86.0538 26.9796 84.2554 27.3849C82.4571 27.7902 80.8335 28.2969 79.3848 28.9049C78.7354 28.4489 78.1859 27.7649 77.7363 26.8529C77.2867 25.8902 77.0619 24.9022 77.0619 23.8889C77.0619 22.5716 77.3617 21.5329 77.9611 20.7729C78.6106 19.9622 79.5847 19.2782 80.8835 18.7209C82.3321 18.1636 84.0306 17.7582 85.9789 17.5049C87.9771 17.2516 89.8504 17.1249 91.5988 17.1249Z" fill="black"/>
<path d="M58.488 55.0489C57.9885 55.2009 57.1892 55.3529 56.0902 55.5049C55.0411 55.6569 53.9422 55.7329 52.7932 55.7329C51.6942 55.7329 50.6951 55.6569 49.7959 55.5049C48.9467 55.3529 48.2223 55.0489 47.6228 54.5929C47.0234 54.1369 46.5488 53.5289 46.1991 52.7689C45.8994 51.9582 45.7495 50.9196 45.7495 49.6529V26.8529C45.7495 25.6876 45.9494 24.6996 46.349 23.8889C46.7986 23.0276 47.4231 22.2676 48.2223 21.6089C49.0216 20.9502 49.9957 20.3676 51.1446 19.8609C52.3436 19.3036 53.6174 18.8222 54.9662 18.4169C56.315 18.0116 57.7138 17.7076 59.1624 17.5049C60.6112 17.2516 62.0598 17.1249 63.5085 17.1249C65.9063 17.1249 67.8047 17.6062 69.2033 18.5689C70.6021 19.4809 71.3015 21.0009 71.3015 23.1289C71.3015 23.8382 71.2016 24.5476 71.0017 25.2569C70.802 25.9156 70.5521 26.5236 70.2524 27.0809C69.2034 27.0809 68.1294 27.1316 67.0303 27.2329C65.9314 27.3342 64.8573 27.4862 63.8082 27.6889C62.7592 27.8916 61.7601 28.1196 60.8109 28.3729C59.9117 28.5756 59.1375 28.8289 58.488 29.1329V55.0489Z" fill="black"/>
<path fill-rule="evenodd" clip-rule="evenodd" d="M27.1755 29.893C26.0764 30.8557 24.4779 31.337 22.3798 31.337H18.4084V19.557C18.9578 19.4557 19.4824 19.405 19.9819 19.405C20.5314 19.3543 21.2058 19.329 22.0051 19.329C24.2531 19.329 25.9516 19.861 27.1005 20.925C28.2994 21.9383 28.8989 23.4077 28.8989 25.333C28.8989 27.3597 28.3244 28.8797 27.1755 29.893ZM15.8607 56.189C17.0596 56.037 17.9338 55.885 18.4833 55.733V41.749H23.8035C26.8508 41.749 29.5233 41.369 31.8213 40.609C34.1691 39.7983 36.0924 38.6837 37.5911 37.265C39.1397 35.7957 40.2886 34.073 41.0379 32.097C41.8373 30.0703 42.2369 27.8157 42.2369 25.333C42.2369 20.2157 40.4135 16.1623 36.7668 13.173C33.12 10.1837 27.8498 8.689 20.9561 8.689C18.7581 8.689 16.56 8.841 14.362 9.14498C12.2139 9.39833 10.2907 9.829 8.59221 10.437C7.59311 10.7917 6.79383 11.273 6.19437 11.881C5.64487 12.4383 5.37012 13.249 5.37012 14.313V19.0769C5.65553 18.8735 6.00335 18.754 6.37867 18.754C7.34861 18.754 8.1349 19.5515 8.1349 20.5353C8.1349 21.519 7.34861 22.3165 6.37867 22.3165C6.00335 22.3165 5.65553 22.1972 5.37012 21.9937V28.6056C5.65553 28.4022 6.00335 28.2827 6.37867 28.2827C7.34861 28.2827 8.1349 29.0803 8.1349 30.064C8.1349 31.0477 7.34861 31.8452 6.37867 31.8452C6.00335 31.8452 5.65553 31.7259 5.37012 31.5225V38.1344C5.65553 37.9309 6.00335 37.8115 6.37867 37.8115C7.34861 37.8115 8.1349 38.609 8.1349 39.5927C8.1349 40.5765 7.34861 41.374 6.37867 41.374C6.00335 41.374 5.65553 41.2546 5.37012 41.0512V50.109C5.37012 51.4263 5.51998 52.4903 5.81971 53.301C6.11944 54.1117 6.56903 54.745 7.16849 55.201C7.76795 55.657 8.4923 55.961 9.34153 56.113C10.2407 56.3157 11.2648 56.417 12.4138 56.417C13.5627 56.417 14.7117 56.341 15.8607 56.189Z" fill="black"/>
<path d="M6.30509 21.7661C6.95161 21.7704 7.48304 21.2422 7.4921 20.5863C7.50115 19.9303 6.98439 19.3952 6.33789 19.391L6.30509 21.7661ZM4.00304 26.5359L5.17371 26.5385L5.1964 24.1634L4.02572 24.1607L4.00304 26.5359ZM6.33789 19.391C5.81677 19.3875 5.16387 19.3659 4.6139 19.3728C4.04454 19.3799 3.42823 19.4158 2.859 19.5572C2.28487 19.6998 1.66052 19.9739 1.18759 20.5323C0.70233 21.1051 0.501234 21.8284 0.501955 22.6187L2.8434 22.5988C2.84305 22.2192 2.93359 22.102 2.95861 22.0725C2.99596 22.0284 3.10055 21.9383 3.39994 21.8639C3.70425 21.7883 4.10607 21.7543 4.6254 21.7478C5.16412 21.741 5.67046 21.7619 6.30509 21.7661L6.33789 19.391ZM0.501955 22.6187C0.503189 23.9718 0.843967 25.0481 1.62833 25.7487C2.38671 26.4262 3.32495 26.5344 4.00304 26.5359L4.02572 24.1607C3.53422 24.1596 3.30267 24.0678 3.18314 23.9611C3.08958 23.8775 2.84431 23.5853 2.8434 22.5988L0.501955 22.6187Z" fill="#EF797E"/>
<path d="M6.3173 31.2948C6.96381 31.2991 7.49525 30.7709 7.5043 30.1151C7.51336 29.4591 6.9966 28.924 6.3501 28.9197L6.3173 31.2948ZM4.01525 36.0647L5.18592 36.0673L5.2086 33.6922L4.03793 33.6896L4.01525 36.0647ZM6.3501 28.9197C5.82898 28.9163 5.17607 28.8947 4.62611 28.9016C4.05674 28.9087 3.44044 28.9445 2.87121 29.086C2.29707 29.2286 1.67274 29.5027 1.1998 30.061C0.714537 30.6339 0.513441 31.3572 0.514162 32.1475L2.85561 32.1275C2.85526 31.748 2.9458 31.6308 2.97082 31.6012C3.00817 31.5572 3.11276 31.467 3.41215 31.3927C3.71646 31.317 4.11828 31.2831 4.63761 31.2766C5.17633 31.2698 5.68267 31.2907 6.3173 31.2948L6.3501 28.9197ZM0.514162 32.1475C0.515396 33.5005 0.856174 34.5769 1.64053 35.2775C2.39892 35.9549 3.33716 36.0631 4.01525 36.0647L4.03793 33.6896C3.54642 33.6884 3.31488 33.5966 3.19535 33.4898C3.10179 33.4062 2.85652 33.1141 2.85561 32.1275L0.514162 32.1475Z" fill="#EF797E"/>
<path d="M6.33 40.8236C6.9765 40.8279 7.50795 40.2997 7.517 39.6438C7.52606 38.9878 7.0093 38.4527 6.36278 38.4485L6.33 40.8236ZM4.02794 45.5934L5.19862 45.596L5.22129 43.2209L4.05063 43.2183L4.02794 45.5934ZM6.36278 38.4485C5.84168 38.445 5.18877 38.4234 4.6388 38.4303C4.06944 38.4374 3.45314 38.4733 2.88391 38.6147C2.30976 38.7573 1.68542 39.0314 1.21249 39.5898C0.727232 40.1626 0.526136 40.8859 0.526857 41.6762L2.8683 41.6563C2.86796 41.2767 2.9585 41.1595 2.98351 41.13C3.02086 41.0859 3.12546 40.9958 3.42485 40.9214C3.72914 40.8458 4.13098 40.8118 4.6503 40.8053C5.18903 40.7985 5.69536 40.8194 6.33 40.8236L6.36278 38.4485ZM0.526857 41.6762C0.528092 43.0293 0.868869 44.1056 1.65323 44.8062C2.41162 45.4837 3.34986 45.5919 4.02794 45.5934L4.05063 43.2183C3.55912 43.2171 3.32758 43.1253 3.20805 43.0186C3.11449 42.935 2.8692 42.6428 2.8683 41.6563L0.526857 41.6762Z" fill="#EF797E"/>
</g>
<defs>
<clipPath id="clip0_292_148">
<rect width="329" height="57" fill="white" transform="translate(0.5 0.5)"/>
</clipPath>
</defs>
</svg>
