<svg width="41" height="31" viewBox="0 0 41 31" fill="none" xmlns="http://www.w3.org/2000/svg">
<path d="M20.5 16.5C23.8558 16.5 26.8962 17.6108 29.1268 19.1642C31.2464 20.6423 33.0416 22.8389 33.0416 25.2021C33.0416 26.4993 32.488 27.5743 31.6155 28.3734C30.7949 29.1277 29.7235 29.6168 28.6198 29.95C26.4143 30.6183 23.51 30.8333 20.5 30.8333C17.49 30.8333 14.5857 30.6183 12.3801 29.95C11.2765 29.6168 10.205 29.1277 9.38267 28.3734C8.51371 27.5761 7.95829 26.5011 7.95829 25.2039C7.95829 22.8407 9.75354 20.6441 11.8731 19.166C14.1037 17.6108 17.1442 16.5 20.5 16.5ZM33.0416 18.2917C34.9121 18.2917 36.6106 18.9098 37.8666 19.7841C39.0133 20.585 40.2083 21.9162 40.2083 23.5395C40.2083 24.4658 39.8052 25.2344 39.205 25.7844C38.6567 26.2879 37.9795 26.5835 37.3613 26.7698C36.5193 27.0243 35.5249 27.155 34.4929 27.2124C34.7115 26.5943 34.8333 25.9224 34.8333 25.2021C34.8333 22.4519 33.1151 20.1156 31.1926 18.4941C31.7998 18.36 32.4198 18.2921 33.0416 18.2917ZM7.95829 18.2917C8.59971 18.2941 9.21604 18.3615 9.80729 18.4941C7.88663 20.1156 6.16663 22.4519 6.16663 25.2021C6.16663 25.9224 6.28846 26.5943 6.50704 27.2124C5.47504 27.155 4.48246 27.0243 3.63858 26.7698C3.02046 26.5835 2.34321 26.2879 1.79317 25.7844C1.47788 25.502 1.22572 25.1562 1.05314 24.7697C0.880561 24.3831 0.791451 23.9646 0.791626 23.5413C0.791626 21.9198 1.98488 20.5868 3.13333 19.7859C4.55387 18.8121 6.23599 18.2911 7.95829 18.2917ZM32.1458 7.54167C33.3337 7.54167 34.473 8.01358 35.313 8.85358C36.153 9.69359 36.625 10.8329 36.625 12.0208C36.625 13.2088 36.153 14.3481 35.313 15.1881C34.473 16.0281 33.3337 16.5 32.1458 16.5C30.9578 16.5 29.8186 16.0281 28.9785 15.1881C28.1385 14.3481 27.6666 13.2088 27.6666 12.0208C27.6666 10.8329 28.1385 9.69359 28.9785 8.85358C29.8186 8.01358 30.9578 7.54167 32.1458 7.54167ZM8.85413 7.54167C10.0421 7.54167 11.1814 8.01358 12.0214 8.85358C12.8614 9.69359 13.3333 10.8329 13.3333 12.0208C13.3333 13.2088 12.8614 14.3481 12.0214 15.1881C11.1814 16.0281 10.0421 16.5 8.85413 16.5C7.66618 16.5 6.52688 16.0281 5.68688 15.1881C4.84687 14.3481 4.37496 13.2088 4.37496 12.0208C4.37496 10.8329 4.84687 9.69359 5.68688 8.85358C6.52688 8.01358 7.66618 7.54167 8.85413 7.54167ZM20.5 0.375C22.4007 0.375 24.2235 1.13006 25.5676 2.47407C26.9116 3.81808 27.6666 5.64095 27.6666 7.54167C27.6666 9.44239 26.9116 11.2653 25.5676 12.6093C24.2235 13.9533 22.4007 14.7083 20.5 14.7083C18.5992 14.7083 16.7764 13.9533 15.4324 12.6093C14.0884 11.2653 13.3333 9.44239 13.3333 7.54167C13.3333 5.64095 14.0884 3.81808 15.4324 2.47407C16.7764 1.13006 18.5992 0.375 20.5 0.375Z" fill="black"/>
</svg>
