<svg width="40" height="49" viewBox="0 0 40 49" fill="none" xmlns="http://www.w3.org/2000/svg">
<path d="M26.1538 9.18786C28.7029 9.18786 30.7692 7.13112 30.7692 4.59393C30.7692 2.05674 28.7029 0 26.1538 0C23.6048 0 21.5385 2.05674 21.5385 4.59393C21.5385 7.13112 23.6048 9.18786 26.1538 9.18786ZM10.9317 30.3841L9.50865 33.6879H3.07692C1.37788 33.6879 0 35.0593 0 36.7505C0 38.4416 1.37788 39.8131 3.07692 39.8131H10.524C12.375 39.8131 14.0413 38.7182 14.7654 37.029L15.6106 35.0651L14.5846 34.4621C12.9192 33.483 11.6942 32.034 10.9317 30.3841ZM36.9231 21.4374H32.6894L30.1837 16.341C28.9817 13.8957 26.775 12.1079 24.2433 11.4657L17.4087 9.44244C14.6875 8.79163 11.8538 9.3898 9.63558 11.0829L5.82115 13.9933C4.47212 15.0222 4.21635 16.9439 5.25192 18.2867C6.2875 19.6295 8.21731 19.8812 9.56538 18.8533L13.3817 15.9429C14.1192 15.3791 15.0587 15.1772 15.8115 15.3552L17.225 15.7734L13.6231 24.1373C12.4096 26.9587 13.4971 30.2635 16.1519 31.8235L24.3231 36.6251L21.6817 45.0215C21.174 46.6351 22.0769 48.353 23.6981 48.8584C24.0048 48.9541 24.3144 49 24.6192 49C25.9279 49 27.1413 48.1607 27.5538 46.8514L30.5962 37.1792C31.1644 35.1914 30.3183 33.0562 28.5154 31.9737L22.6269 28.5149L25.6375 21.023L27.5865 24.9881C28.3558 26.552 29.9827 27.5617 31.7317 27.5617H36.9231C38.6221 27.5617 40 26.1902 40 24.499C40 22.8079 38.6221 21.4374 36.9231 21.4374Z" fill="black"/>
</svg>
