<svg width="53" height="43" viewBox="0 0 53 43" fill="none" xmlns="http://www.w3.org/2000/svg">
<path fill-rule="evenodd" clip-rule="evenodd" d="M42.7401 32.91L50.2998 40.4697L47.7719 43L7.29743 2.53025L9.8253 0L16.3596 6.52953C19.52 5.36142 22.8632 4.76547 26.2326 4.76956C37.6986 4.76956 47.6289 11.5614 52.4652 21.463C50.2396 26.037 46.8943 29.9745 42.7401 32.91ZM23.4281 13.6004L34.0952 24.2675C34.6274 22.7791 34.726 21.1701 34.3794 19.6278C34.0329 18.0855 33.2555 16.6733 32.1378 15.5555C31.02 14.4377 29.6078 13.6604 28.0655 13.3138C26.5232 12.9673 24.9142 13.0659 23.4257 13.598L23.4281 13.6004ZM36.108 36.3989C32.9467 37.5665 29.6026 38.1617 26.2326 38.1565C14.7666 38.1565 4.83634 31.3647 0 21.463C2.22564 16.8891 5.57088 12.9515 9.72514 10.0161L18.37 18.6585C17.8378 20.147 17.7392 21.756 18.0858 23.2983C18.4323 24.8406 19.2097 26.2528 20.3274 27.3706C21.4452 28.4883 22.8574 29.2657 24.3997 29.6122C25.942 29.9588 27.551 29.8602 29.0395 29.328L36.108 36.3965V36.3989Z" fill="black"/>
</svg>
