<svg width="100" height="100" viewBox="0 0 100 100" fill="none" xmlns="http://www.w3.org/2000/svg">
<circle cx="50" cy="50" r="50" fill="white"/>
<path d="M47.227 34.5733C46.6894 34.0359 45.9604 33.7339 45.2002 33.7339C44.4401 33.7339 43.7111 34.0359 43.1735 34.5733L30.2735 47.4733C29.7361 48.0108 29.4342 48.7399 29.4342 49.5C29.4342 50.2601 29.7361 50.9892 30.2735 51.5267L43.1735 64.4267C43.7142 64.9489 44.4383 65.2379 45.1899 65.2313C45.9415 65.2248 46.6605 64.9233 47.192 64.3918C47.7235 63.8603 48.025 63.1413 48.0316 62.3897C48.0381 61.6381 47.7491 60.9139 47.227 60.3733L39.4669 52.3667H66.7002C67.4605 52.3667 68.1897 52.0646 68.7273 51.527C69.2649 50.9894 69.5669 50.2603 69.5669 49.5C69.5669 48.7397 69.2649 48.0106 68.7273 47.473C68.1897 46.9354 67.4605 46.6333 66.7002 46.6333H39.4669L47.227 38.6267C47.7644 38.0892 48.0663 37.3601 48.0663 36.6C48.0663 35.8399 47.7644 35.1108 47.227 34.5733Z" fill="black"/>
</svg>
