<svg width="34" height="39" viewBox="0 0 34 39" fill="none" xmlns="http://www.w3.org/2000/svg">
<path d="M9.5 4.5H4.5C3.83696 4.5 3.20107 4.76339 2.73223 5.23223C2.26339 5.70107 2 6.33696 2 7V34.5C2 35.163 2.26339 35.7989 2.73223 36.2678C3.20107 36.7366 3.83696 37 4.5 37H29.5C30.163 37 30.7989 36.7366 31.2678 36.2678C31.7366 35.7989 32 35.163 32 34.5V7C32 6.33696 31.7366 5.70107 31.2678 5.23223C30.7989 4.76339 30.163 4.5 29.5 4.5H24.5" stroke="black" stroke-width="3" stroke-linecap="round" stroke-linejoin="round"/>
<path d="M14.5002 14.5H27.0002M14.5002 22H27.0002M14.5002 29.5H27.0002M7.00024 14.5H9.50024M7.00024 22H9.50024M7.00024 29.5H9.50024M12.0002 2H22.0002C22.6633 2 23.2992 2.26339 23.768 2.73223C24.2369 3.20107 24.5002 3.83696 24.5002 4.5C24.5002 5.16304 24.2369 5.79893 23.768 6.26777C23.2992 6.73661 22.6633 7 22.0002 7H12.0002C11.3372 7 10.7013 6.73661 10.2325 6.26777C9.76364 5.79893 9.50024 5.16304 9.50024 4.5C9.50024 3.83696 9.76364 3.20107 10.2325 2.73223C10.7013 2.26339 11.3372 2 12.0002 2Z" stroke="black" stroke-width="3" stroke-linecap="round" stroke-linejoin="round"/>
</svg>
