<svg width="28" height="29" viewBox="0 0 28 29" fill="none" xmlns="http://www.w3.org/2000/svg">
<path fill-rule="evenodd" clip-rule="evenodd" d="M0.663013 1.52842C1.08767 1.09029 1.66355 0.844159 2.26401 0.844159C2.86447 0.844159 3.44035 1.09029 3.865 1.52842L13.5865 11.5614L23.3079 1.52842C23.5168 1.3052 23.7667 1.12716 24.043 1.00468C24.3193 0.882197 24.6164 0.817726 24.9171 0.81503C25.2178 0.812333 25.5159 0.871464 25.7942 0.988973C26.0725 1.10648 26.3254 1.28002 26.538 1.49945C26.7506 1.71888 26.9188 1.97982 27.0326 2.26703C27.1465 2.55425 27.2038 2.86199 27.2012 3.1723C27.1986 3.48262 27.1361 3.78928 27.0174 4.07441C26.8987 4.35954 26.7262 4.61743 26.5099 4.83301L16.7885 14.866L26.5099 24.899C26.9224 25.3397 27.1507 25.9301 27.1455 26.5428C27.1404 27.1556 26.9022 27.7418 26.4823 28.1751C26.0625 28.6084 25.4945 28.8542 24.9008 28.8595C24.307 28.8648 23.735 28.6293 23.3079 28.2036L13.5865 18.1706L3.865 28.2036C3.43792 28.6293 2.8659 28.8648 2.27216 28.8595C1.67842 28.8542 1.11045 28.6084 0.690597 28.1751C0.270742 27.7418 0.0325873 27.1556 0.0274279 26.5428C0.0222684 25.9301 0.250517 25.3397 0.663013 24.899L10.3845 14.866L0.663013 4.83301C0.238486 4.39475 0 3.80042 0 3.18071C0 2.56101 0.238486 1.96668 0.663013 1.52842Z" fill="black"/>
</svg>
