<svg width="36" height="36" viewBox="0 0 36 36" fill="none" xmlns="http://www.w3.org/2000/svg">
<path fill-rule="evenodd" clip-rule="evenodd" d="M0 17.9167C0 8.02129 8.02129 0 17.9167 0C27.812 0 35.8333 8.02129 35.8333 17.9167C35.8333 27.812 27.812 35.8333 17.9167 35.8333C8.02129 35.8333 0 27.812 0 17.9167ZM17.9167 3.58333C14.1152 3.58333 10.4695 5.09345 7.78147 7.78147C5.09345 10.4695 3.58333 14.1152 3.58333 17.9167C3.58333 21.7181 5.09345 25.3638 7.78147 28.0519C10.4695 30.7399 14.1152 32.25 17.9167 32.25C21.7181 32.25 25.3638 30.7399 28.0519 28.0519C30.7399 25.3638 32.25 21.7181 32.25 17.9167C32.25 14.1152 30.7399 10.4695 28.0519 7.78147C25.3638 5.09345 21.7181 3.58333 17.9167 3.58333Z" fill="black"/>
<path fill-rule="evenodd" clip-rule="evenodd" d="M19.7083 8.95832C19.7083 8.48314 19.5195 8.02743 19.1835 7.69142C18.8475 7.35542 18.3918 7.16666 17.9166 7.16666C17.4414 7.16666 16.9857 7.35542 16.6497 7.69142C16.3137 8.02743 16.125 8.48314 16.125 8.95832V16.125H8.95829C8.48311 16.125 8.0274 16.3138 7.69139 16.6498C7.35539 16.9858 7.16663 17.4415 7.16663 17.9167C7.16663 18.3918 7.35539 18.8476 7.69139 19.1836C8.0274 19.5196 8.48311 19.7083 8.95829 19.7083H16.125V26.875C16.125 27.3502 16.3137 27.8059 16.6497 28.1419C16.9857 28.4779 17.4414 28.6667 17.9166 28.6667C18.3918 28.6667 18.8475 28.4779 19.1835 28.1419C19.5195 27.8059 19.7083 27.3502 19.7083 26.875V19.7083H26.875C27.3501 19.7083 27.8059 19.5196 28.1419 19.1836C28.4779 18.8476 28.6666 18.3918 28.6666 17.9167C28.6666 17.4415 28.4779 16.9858 28.1419 16.6498C27.8059 16.3138 27.3501 16.125 26.875 16.125H19.7083V8.95832Z" fill="black"/>
</svg>
