<svg width="48" height="48" viewBox="0 0 48 48" fill="none" xmlns="http://www.w3.org/2000/svg">
<path d="M44 24C44 23.4696 43.7893 22.9609 43.4142 22.5858C43.0392 22.2107 42.5305 22 42 22C41.4696 22 40.9609 22.2107 40.5858 22.5858C40.2107 22.9609 40 23.4696 40 24H44ZM24 8C24.5305 8 25.0392 7.78929 25.4142 7.41421C25.7893 7.03914 26 6.53043 26 6C26 5.46957 25.7893 4.96086 25.4142 4.58579C25.0392 4.21071 24.5305 4 24 4V8ZM39 40H9.00003V44H39V40ZM8.00003 39V9H4.00003V39H8.00003ZM40 24V39H44V24H40ZM9.00003 8H24V4H9.00003V8ZM9.00003 40C8.73481 40 8.48046 39.8946 8.29292 39.7071C8.10539 39.5196 8.00003 39.2652 8.00003 39H4.00003C4.00003 40.3261 4.52681 41.5979 5.4645 42.5355C6.40218 43.4732 7.67395 44 9.00003 44V40ZM39 44C40.3261 44 41.5979 43.4732 42.5356 42.5355C43.4732 41.5979 44 40.3261 44 39H40C40 39.2652 39.8947 39.5196 39.7071 39.7071C39.5196 39.8946 39.2652 40 39 40V44ZM8.00003 9C8.00003 8.73478 8.10539 8.48043 8.29292 8.29289C8.48046 8.10536 8.73481 8 9.00003 8V4C7.67395 4 6.40218 4.52678 5.4645 5.46447C4.52681 6.40215 4.00003 7.67392 4.00003 9H8.00003Z" fill="black"/>
<path d="M6.00003 35L16.693 25.198C17.0534 24.8677 17.5224 24.6808 18.0112 24.6727C18.5 24.6646 18.9749 24.8358 19.346 25.154L32 36M28 31L32.773 26.227C33.1135 25.8863 33.5654 25.68 34.0458 25.6458C34.5262 25.6116 35.0028 25.752 35.388 26.041L42 31M30 12H42M36 6V18" stroke="black" stroke-width="4" stroke-linecap="round" stroke-linejoin="round"/>
</svg>
