<svg width="43" height="43" viewBox="0 0 43 43" fill="none" xmlns="http://www.w3.org/2000/svg">
<path d="M21.5 0C24.3511 0 27.0854 1.13259 29.1014 3.1486C31.1174 5.16462 32.25 7.89892 32.25 10.75C32.25 13.6011 31.1174 16.3354 29.1014 18.3514C27.0854 20.3674 24.3511 21.5 21.5 21.5C18.6489 21.5 15.9146 20.3674 13.8986 18.3514C11.8826 16.3354 10.75 13.6011 10.75 10.75C10.75 7.89892 11.8826 5.16462 13.8986 3.1486C15.9146 1.13259 18.6489 0 21.5 0ZM21.5 26.875C33.3787 26.875 43 31.6856 43 37.625V43H0V37.625C0 31.6856 9.62125 26.875 21.5 26.875Z" fill="black"/>
</svg>
