<svg width="42" height="46" viewBox="0 0 42 46" fill="none" xmlns="http://www.w3.org/2000/svg">
<path d="M20.8333 0C32.3396 0 41.6667 9.32708 41.6667 20.8333C41.6667 32.3396 32.3396 41.6667 20.8333 41.6667C9.32708 41.6667 0 32.3396 0 20.8333C0 9.32708 9.32708 0 20.8333 0ZM20.8333 4.16667C16.4131 4.16667 12.1738 5.92261 9.04822 9.04822C5.92261 12.1738 4.16667 16.4131 4.16667 20.8333C4.16667 25.2536 5.92261 29.4928 9.04822 32.6185C12.1738 35.7441 16.4131 37.5 20.8333 37.5C25.2536 37.5 29.4928 35.7441 32.6185 32.6185C35.7441 29.4928 37.5 25.2536 37.5 20.8333C37.5 16.4131 35.7441 12.1738 32.6185 9.04822C29.4928 5.92261 25.2536 4.16667 20.8333 4.16667ZM20.8125 16.6667C21.975 16.6667 22.9167 17.6083 22.9167 18.7708V29.4458C23.3138 29.6752 23.6242 30.0291 23.7997 30.4528C23.9752 30.8765 24.0059 31.3462 23.8873 31.7892C23.7686 32.2322 23.507 32.6236 23.1432 32.9028C22.7794 33.182 22.3336 33.3333 21.875 33.3333H20.8542C20.5778 33.3333 20.3042 33.2789 20.0489 33.1732C19.7936 33.0674 19.5617 32.9124 19.3663 32.717C19.1709 32.5216 19.0159 32.2897 18.9102 32.0344C18.8044 31.7791 18.75 31.5055 18.75 31.2292V20.8333C18.1975 20.8333 17.6676 20.6138 17.2769 20.2231C16.8862 19.8324 16.6667 19.3025 16.6667 18.75C16.6667 18.1975 16.8862 17.6676 17.2769 17.2769C17.6676 16.8862 18.1975 16.6667 18.75 16.6667H20.8125ZM20.8333 10.4167C21.3859 10.4167 21.9158 10.6362 22.3065 11.0269C22.6972 11.4176 22.9167 11.9475 22.9167 12.5C22.9167 13.0525 22.6972 13.5824 22.3065 13.9731C21.9158 14.3638 21.3859 14.5833 20.8333 14.5833C20.2808 14.5833 19.7509 14.3638 19.3602 13.9731C18.9695 13.5824 18.75 13.0525 18.75 12.5C18.75 11.9475 18.9695 11.4176 19.3602 11.0269C19.7509 10.6362 20.2808 10.4167 20.8333 10.4167Z" fill="black"/>
</svg>
