<svg width="34" height="27" viewBox="0 0 34 27" fill="none" xmlns="http://www.w3.org/2000/svg">
<path fill-rule="evenodd" clip-rule="evenodd" d="M25.023 1.97703C23.7571 0.711158 22.0402 0 20.25 0C18.4598 0 16.7429 0.711158 15.477 1.97703C14.2112 3.2429 13.5 4.95979 13.5 6.75C13.5 8.54021 14.2112 10.2571 15.477 11.523C16.7429 12.7888 18.4598 13.5 20.25 13.5C22.0402 13.5 23.7571 12.7888 25.023 11.523C26.2888 10.2571 27 8.54021 27 6.75C27 4.95979 26.2888 3.2429 25.023 1.97703ZM33.75 23.625C33.75 19.8956 27.7087 16.875 20.25 16.875C12.7913 16.875 6.75 19.8956 6.75 23.625V27H33.75V23.625ZM6.35398 7.28421C6.53164 7.46187 6.63145 7.70284 6.63145 7.95409V11.7435H10.4209C10.6721 11.7435 10.9131 11.8433 11.0907 12.021C11.2684 12.1986 11.3682 12.4396 11.3682 12.6908C11.3682 12.9421 11.2684 13.1831 11.0907 13.3607C10.9131 13.5384 10.6721 13.6382 10.4209 13.6382H6.63145V17.4276C6.63145 17.6788 6.53164 17.9198 6.35398 18.0975C6.17632 18.2751 5.93536 18.3749 5.6841 18.3749C5.43285 18.3749 5.19189 18.2751 5.01423 18.0975C4.83656 17.9198 4.73675 17.6788 4.73675 17.4276V13.6382H0.94735C0.696097 13.6382 0.455135 13.5384 0.277473 13.3607C0.09981 13.1831 0 12.9421 0 12.6908C0 12.4396 0.09981 12.1986 0.277473 12.021C0.455135 11.8433 0.696097 11.7435 0.94735 11.7435H4.73675V7.95409C4.73675 7.70284 4.83656 7.46187 5.01423 7.28421C5.19189 7.10655 5.43285 7.00674 5.6841 7.00674C5.93536 7.00674 6.17632 7.10655 6.35398 7.28421Z" fill="black"/>
</svg>
