<svg width="34" height="28" viewBox="0 0 34 28" fill="none" xmlns="http://www.w3.org/2000/svg">
<path fill-rule="evenodd" clip-rule="evenodd" d="M8.07059 0.393078C13.9345 -0.131026 19.8334 -0.131026 25.6973 0.393078L28.2273 0.619744C29.452 0.729106 30.6042 1.2482 31.4975 2.09317C32.3909 2.93813 32.9733 4.05961 33.1506 5.27641C33.9736 10.9132 33.9736 16.6396 33.1506 22.2764C32.9729 23.4929 32.3904 24.614 31.4971 25.4586C30.6037 26.3033 29.4518 26.8221 28.2273 26.9314L25.6973 27.1581C19.8334 27.6822 13.9345 27.6822 8.07059 27.1581L5.54059 26.9314C4.31606 26.8221 3.16411 26.3033 2.27079 25.4586C1.37747 24.614 0.79493 23.4929 0.617261 22.2764C-0.205754 16.6396 -0.205754 10.9132 0.617261 5.27641C0.794586 4.05961 1.37697 2.93813 2.27032 2.09317C3.16368 1.2482 4.31581 0.729106 5.54059 0.619744L8.07059 0.393078ZM6.64393 5.17641C6.45352 5.07373 6.23973 5.02221 6.02345 5.02691C5.80717 5.03161 5.59581 5.09236 5.41005 5.20321C5.22428 5.31407 5.07046 5.47124 4.96363 5.65935C4.85681 5.84746 4.80063 6.06008 4.80059 6.27641V22.1097C4.80059 22.4413 4.93229 22.7592 5.16671 22.9936C5.40113 23.228 5.71907 23.3597 6.05059 23.3597C6.38211 23.3597 6.70006 23.228 6.93448 22.9936C7.1689 22.7592 7.30059 22.4413 7.30059 22.1097V8.36974L16.2906 13.2097C16.6606 13.4097 17.1073 13.4097 17.4773 13.2097L26.4673 8.36974V22.1097C26.4673 22.4413 26.599 22.7592 26.8334 22.9936C27.0678 23.228 27.3857 23.3597 27.7173 23.3597C28.0488 23.3597 28.3667 23.228 28.6011 22.9936C28.8356 22.7592 28.9673 22.4413 28.9673 22.1097V6.27641C28.9672 6.06008 28.911 5.84746 28.8042 5.65935C28.6974 5.47124 28.5436 5.31407 28.3578 5.20321C28.172 5.09236 27.9607 5.03161 27.7444 5.02691C27.5281 5.02221 27.3143 5.07373 27.1239 5.17641L16.8839 10.6897L6.64393 5.17641Z" fill="black"/>
</svg>
