<svg width="35" height="35" viewBox="0 0 35 35" fill="none" xmlns="http://www.w3.org/2000/svg">
<path fill-rule="evenodd" clip-rule="evenodd" d="M7.60227 2.308C5.7616 2.55556 4.6387 3.02818 3.80651 3.86108L3.80591 3.86169C2.973 4.69388 2.50039 5.81678 2.25282 7.65745C2.00139 9.52687 1.99927 11.9813 1.99927 15.3878V18.9711C1.99927 22.3776 2.00139 24.832 2.25282 26.7014C2.50039 28.5421 2.973 29.665 3.80591 30.4972L3.80651 30.4978C4.6387 31.3307 5.7616 31.8033 7.60227 32.0509C9.47169 32.3023 11.9261 32.3044 15.3326 32.3044H18.9159C22.3224 32.3044 24.7768 32.3023 26.6463 32.0509C28.4869 31.8033 29.6098 31.3307 30.442 30.4978L30.4426 30.4972C31.2755 29.665 31.7481 28.5421 31.9957 26.7014C32.2471 24.832 32.2493 22.3776 32.2493 18.9711V15.3878C32.2493 11.9813 32.2471 9.52687 31.9957 7.65745C31.7481 5.81678 31.2755 4.69388 30.4426 3.86169L30.442 3.86108C29.6098 3.02818 28.4869 2.55556 26.6463 2.308C24.7768 2.05657 22.3224 2.05444 18.9159 2.05444H15.3326C11.9261 2.05444 9.47169 2.05657 7.60227 2.308ZM15.2557 0.0544436H15.3326H18.9159H18.9928C22.3059 0.0544272 24.8947 0.0544146 26.9129 0.325846C28.975 0.603198 30.5905 1.18036 31.8562 2.44687C33.1232 3.71272 33.7005 5.32838 33.9779 7.39086C34.2493 9.40897 34.2493 11.9978 34.2493 15.3108V15.3109V15.3878V18.9711V19.048V19.0481C34.2493 22.3611 34.2493 24.9499 33.9779 26.968C33.7005 29.0303 33.1233 30.6459 31.8565 31.9117C30.5907 33.1784 28.9752 33.7557 26.9129 34.033C24.8947 34.3045 22.3059 34.3045 18.9929 34.3044H18.9928H18.9159H15.3326H15.2557H15.2556C11.9426 34.3045 9.3538 34.3045 7.33568 34.033C5.2732 33.7556 3.65754 33.1783 2.39169 31.9114C1.12518 30.6457 0.548022 29.0302 0.270671 26.968C-0.000761134 24.9499 -0.000748617 22.361 -0.000732166 19.048V18.9711V15.3878V15.3109C-0.000748617 11.9978 -0.000761134 9.40899 0.270671 7.39086C0.548044 5.32854 1.12527 3.71298 2.39199 2.44717C3.6578 1.18045 5.27337 0.60322 7.33568 0.325846C9.35382 0.0544146 11.9427 0.0544272 15.2557 0.0544436ZM31.8565 31.9117L31.8568 31.9114L31.1494 31.2046L31.8562 31.912L31.8565 31.9117ZM25.1868 11.8044C26.671 11.8044 27.8743 10.6012 27.8743 9.11694C27.8743 7.63268 26.671 6.42944 25.1868 6.42944C23.7025 6.42944 22.4993 7.63268 22.4993 9.11694C22.4993 10.6012 23.7025 11.8044 25.1868 11.8044ZM12.7493 17.1794C12.7493 14.7632 14.708 12.8044 17.1243 12.8044C19.5405 12.8044 21.4993 14.7632 21.4993 17.1794C21.4993 19.5957 19.5405 21.5544 17.1243 21.5544C14.708 21.5544 12.7493 19.5957 12.7493 17.1794ZM17.1243 10.8044C13.6035 10.8044 10.7493 13.6586 10.7493 17.1794C10.7493 20.7003 13.6035 23.5544 17.1243 23.5544C20.6451 23.5544 23.4993 20.7003 23.4993 17.1794C23.4993 13.6586 20.6451 10.8044 17.1243 10.8044Z" fill="black"/>
</svg>
