<svg width="329" height="57" viewBox="0 0 329 57" fill="none" xmlns="http://www.w3.org/2000/svg">
<g clip-path="url(#clip0_304_97)">
<path fill-rule="evenodd" clip-rule="evenodd" d="M313.944 46.3599C312.946 46.5119 312.021 46.5879 311.172 46.5879C309.323 46.5879 308 46.2839 307.201 45.6759C306.451 45.0172 306.077 44.1812 306.077 43.1679C306.077 42.1546 306.526 41.3946 307.425 40.8879C308.325 40.3812 309.473 40.0772 310.872 39.9759L316.267 39.5199V45.5999C315.767 45.9039 314.994 46.1572 313.944 46.3599ZM317.916 17.5559C315.718 16.9986 313.27 16.7199 310.573 16.7199C308.824 16.7199 306.951 16.8466 304.953 17.0999C304.484 17.1593 303.988 17.2444 303.481 17.3477C301.146 17.8235 298.314 17.7687 297.35 15.5609C297.315 15.4816 297.3 15.4374 297.3 15.4374H289.104C289.104 15.4374 288.725 20.6057 289.69 22.5624C289.719 22.6227 289.753 22.6957 289.792 22.78C290.231 23.738 291.33 26.1406 295.108 27.6201C297.161 28.424 299.424 27.9955 301.546 27.4032C302.089 27.2516 302.65 27.1105 303.229 26.9799C305.028 26.5746 306.876 26.3719 308.774 26.3719C311.172 26.3719 312.995 26.7012 314.244 27.3599C315.543 27.9679 316.192 29.0066 316.192 30.4759V31.0079L306.376 32.0719C302.081 32.5279 298.908 33.6932 296.86 35.5679C294.812 37.4426 293.788 40.1279 293.788 43.6239C293.788 45.7012 294.187 47.5252 294.987 49.0959C295.835 50.6666 297.01 51.9586 298.508 52.9719C300.057 53.9852 301.88 54.7452 303.978 55.2519C306.127 55.7586 308.525 56.0119 311.172 56.0119C317.067 56.0119 321.638 55.0239 324.885 53.0479C325.883 52.4399 326.733 51.7306 327.432 50.9199C328.182 50.0586 328.556 48.9692 328.556 47.6519V30.6279C328.556 28.2466 328.131 26.1946 327.282 24.4719C326.434 22.6986 325.209 21.2546 323.611 20.1399C322.062 18.9746 320.164 18.1132 317.916 17.5559Z" fill="black"/>
<path d="M312.221 1.82388C313.12 2.07721 313.87 2.27988 314.469 2.43188C315.068 2.58388 315.568 2.65988 315.968 2.65988C317.067 2.65988 317.916 2.33054 318.515 1.67188C319.115 1.01321 319.54 0.455879 319.789 -0.00012207C321.537 -0.00012207 322.987 0.582545 324.135 1.74788C325.334 2.86254 325.934 4.30654 325.934 6.07988C325.934 8.35988 325.235 10.0319 323.836 11.0959C322.436 12.1599 320.688 12.6919 318.59 12.6919C317.891 12.6919 317.191 12.6666 316.492 12.6159C315.793 12.5146 315.018 12.3372 314.169 12.0839L311.172 11.1719C310.473 10.9692 308.923 10.195 308.423 10.0936C306.504 9.44476 304.499 8.19219 302.476 8.22188C302.198 8.22597 301.915 8.23915 301.637 8.25984C299.499 8.41832 297.943 9.89839 297.501 12.0262C297.377 12.6226 297.3 13.0624 297.3 13.0624H293.788H289.104C289.104 9.11964 289.532 7.12429 290.384 5.90071C291.474 4.3377 293.222 3.33154 294.885 2.42316C295.156 2.27442 295.449 2.13183 295.764 1.99708C297.477 1.26586 299.367 0.802274 301.216 0.622506C301.658 0.579572 302.051 0.53322 302.31 0.455876H305.402C306.052 0.455876 306.826 0.531877 307.725 0.683879C308.675 0.835876 310.173 1.21588 312.221 1.82388Z" fill="#EF797E"/>
<path d="M285.136 54.9099C284.636 55.0619 283.838 55.2139 282.739 55.3659C281.69 55.5179 280.59 55.5939 279.442 55.5939C278.342 55.5939 277.343 55.5179 276.444 55.3659C275.595 55.2139 274.871 54.9099 274.271 54.4539C273.672 53.9979 273.198 53.3899 272.847 52.6299C272.548 51.8192 272.398 50.7806 272.398 49.5139V32.6419C272.398 30.5646 271.873 29.1206 270.824 28.3099C269.826 27.4486 268.576 27.0179 267.078 27.0179C266.079 27.0179 265.129 27.1446 264.23 27.3979C263.331 27.6512 262.606 27.9552 262.057 28.3099V54.9099C261.557 55.0619 260.759 55.2139 259.659 55.3659C258.61 55.5179 257.511 55.5939 256.362 55.5939C255.263 55.5939 254.264 55.5179 253.365 55.3659C252.516 55.2139 251.792 54.9099 251.192 54.4539C250.593 53.9979 250.118 53.3899 249.768 52.6299C249.469 51.8192 249.319 50.7806 249.319 49.5139V5.43388C249.868 5.33254 250.668 5.20588 251.717 5.05388C252.816 4.85121 253.914 4.74988 255.014 4.74988C256.113 4.74988 257.087 4.82588 257.936 4.97788C258.835 5.12988 259.584 5.43388 260.184 5.88988C260.783 6.34588 261.233 6.97921 261.533 7.78988C261.883 8.54988 262.057 9.56321 262.057 10.8299V18.2779C262.707 18.0246 263.681 17.7459 264.98 17.4419C266.328 17.0872 267.802 16.9099 269.401 16.9099C274.346 16.9099 278.192 18.1766 280.94 20.7099C283.737 23.1926 285.136 26.9166 285.136 31.8819V54.9099Z" fill="black"/>
<path d="M233.068 31.2929C233.068 29.7222 232.618 28.5822 231.719 27.8729C230.869 27.1129 229.696 26.7329 228.197 26.7329C227.197 26.7329 226.199 26.8596 225.2 27.1129C224.25 27.3662 223.426 27.7462 222.727 28.2529V54.6249C222.227 54.7769 221.428 54.9289 220.329 55.0809C219.28 55.2329 218.181 55.3089 217.032 55.3089C215.933 55.3089 214.934 55.2329 214.035 55.0809C213.185 54.9289 212.461 54.6249 211.862 54.1689C211.262 53.7129 210.787 53.1049 210.438 52.3449C210.138 51.5342 209.989 50.4956 209.989 49.2289V26.4289C209.989 25.0609 210.263 23.9462 210.813 23.0849C211.412 22.2236 212.211 21.4382 213.211 20.7289C214.908 19.5129 217.032 18.5249 219.58 17.7649C222.177 17.0049 225.05 16.6249 228.197 16.6249C233.842 16.6249 238.188 17.8916 241.235 20.4249C244.282 22.9076 245.806 26.3782 245.806 30.8369V54.6249C245.306 54.7769 244.507 54.9289 243.408 55.0809C242.359 55.2329 241.26 55.3089 240.111 55.3089C239.012 55.3089 238.013 55.2329 237.114 55.0809C236.264 54.9289 235.541 54.6249 234.941 54.1689C234.342 53.7129 233.866 53.1049 233.517 52.3449C233.218 51.5342 233.068 50.4956 233.068 49.2289V31.2929Z" fill="black"/>
<path d="M189.092 46.4929C189.941 46.4929 190.864 46.4169 191.864 46.2649C192.913 46.0622 193.687 45.8089 194.187 45.5049V39.4249L188.792 39.8809C187.393 39.9822 186.244 40.2862 185.345 40.7929C184.446 41.2996 183.996 42.0596 183.996 43.0729C183.996 44.0862 184.371 44.9222 185.12 45.5809C185.919 46.1889 187.243 46.4929 189.092 46.4929ZM188.492 16.6249C191.19 16.6249 193.637 16.9036 195.836 17.4609C198.084 18.0182 199.982 18.8796 201.531 20.0449C203.129 21.1596 204.352 22.6036 205.202 24.3769C206.051 26.0996 206.476 28.1516 206.476 30.5329V47.5569C206.476 48.8742 206.101 49.9636 205.352 50.8249C204.652 51.6356 203.803 52.3449 202.804 52.9529C199.557 54.9289 194.986 55.9169 189.092 55.9169C186.443 55.9169 184.046 55.6636 181.898 55.1569C179.8 54.6502 177.976 53.8902 176.428 52.8769C174.93 51.8636 173.755 50.5716 172.906 49.0009C172.107 47.4302 171.708 45.6062 171.708 43.5289C171.708 40.0329 172.731 37.3476 174.78 35.4729C176.828 33.5982 179.999 32.4329 184.296 31.9769L194.112 30.9129V30.3809C194.112 28.9116 193.462 27.8729 192.164 27.2649C190.915 26.6062 189.092 26.2769 186.694 26.2769C184.795 26.2769 182.947 26.4796 181.149 26.8849C179.351 27.2902 177.727 27.7969 176.278 28.4049C175.629 27.9489 175.079 27.2649 174.63 26.3529C174.18 25.3902 173.955 24.4022 173.955 23.3889C173.955 22.0716 174.255 21.0329 174.855 20.2729C175.503 19.4622 176.477 18.7782 177.777 18.2209C179.225 17.6636 180.924 17.2582 182.872 17.0049C184.87 16.7516 186.743 16.6249 188.492 16.6249Z" fill="black"/>
<path d="M130.055 16.6249C132.102 16.6249 134.101 16.9289 136.049 17.5369C138.048 18.0942 139.771 18.9556 141.219 20.1209C142.718 19.1076 144.391 18.2716 146.24 17.6129C148.138 16.9542 150.412 16.6249 153.059 16.6249C154.957 16.6249 156.805 16.8782 158.604 17.3849C160.453 17.8916 162.075 18.7022 163.474 19.8169C164.923 20.8809 166.072 22.3249 166.921 24.1489C167.77 25.9222 168.195 28.1009 168.195 30.6849V54.6249C167.695 54.7769 166.897 54.9289 165.797 55.0809C164.748 55.2329 163.649 55.3089 162.5 55.3089C161.401 55.3089 160.402 55.2329 159.503 55.0809C158.654 54.9289 157.929 54.6249 157.33 54.1689C156.731 53.7129 156.256 53.1049 155.906 52.3449C155.607 51.5342 155.457 50.4956 155.457 49.2289V31.0649C155.457 29.5449 155.032 28.4556 154.183 27.7969C153.334 27.0876 152.184 26.7329 150.736 26.7329C150.037 26.7329 149.288 26.9102 148.488 27.2649C147.688 27.5689 147.089 27.8982 146.69 28.2529C146.74 28.4556 146.764 28.6582 146.764 28.8609C146.764 29.0129 146.764 29.1649 146.764 29.3169V54.6249C146.215 54.7769 145.391 54.9289 144.292 55.0809C143.243 55.2329 142.169 55.3089 141.07 55.3089C139.97 55.3089 138.972 55.2329 138.072 55.0809C137.223 54.9289 136.499 54.6249 135.899 54.1689C135.3 53.7129 134.826 53.1049 134.476 52.3449C134.176 51.5342 134.026 50.4956 134.026 49.2289V31.0649C134.026 29.5449 133.552 28.4556 132.602 27.7969C131.703 27.0876 130.604 26.7329 129.305 26.7329C128.406 26.7329 127.632 26.8849 126.982 27.1889C126.333 27.4422 125.783 27.6956 125.334 27.9489V54.6249C124.834 54.7769 124.035 54.9289 122.936 55.0809C121.887 55.2329 120.788 55.3089 119.639 55.3089C118.54 55.3089 117.541 55.2329 116.641 55.0809C115.792 54.9289 115.068 54.6249 114.468 54.1689C113.869 53.7129 113.394 53.1049 113.045 52.3449C112.745 51.5342 112.595 50.4956 112.595 49.2289V26.2769C112.595 24.9089 112.87 23.8196 113.419 23.0089C114.019 22.1982 114.818 21.4382 115.817 20.7289C117.516 19.5129 119.614 18.5249 122.112 17.7649C124.659 17.0049 127.307 16.6249 130.055 16.6249Z" fill="black"/>
<path d="M91.6983 46.4929C92.5475 46.4929 93.4717 46.4169 94.4708 46.2649C95.5198 46.0622 96.2941 45.8089 96.7937 45.5049V39.4249L91.3985 39.8809C89.9998 39.9822 88.8508 40.2862 87.9517 40.7929C87.0525 41.2996 86.6029 42.0596 86.6029 43.0729C86.6029 44.0862 86.9775 44.9222 87.7269 45.5809C88.5262 46.1889 89.8499 46.4929 91.6983 46.4929ZM91.0988 16.6249C93.7964 16.6249 96.2442 16.9036 98.4422 17.4609C100.69 18.0182 102.588 18.8796 104.137 20.0449C105.736 21.1596 106.96 22.6036 107.809 24.3769C108.658 26.0996 109.083 28.1516 109.083 30.5329V47.5569C109.083 48.8742 108.708 49.9636 107.959 50.8249C107.259 51.6356 106.41 52.3449 105.411 52.9529C102.164 54.9289 97.593 55.9169 91.6983 55.9169C89.0507 55.9169 86.6529 55.6636 84.5048 55.1569C82.4067 54.6502 80.5833 53.8902 79.0347 52.8769C77.5361 51.8636 76.3621 50.5716 75.5129 49.0009C74.7136 47.4302 74.314 45.6062 74.314 43.5289C74.314 40.0329 75.3381 37.3476 77.3862 35.4729C79.4343 33.5982 82.6065 32.4329 86.9026 31.9769L96.7187 30.9129V30.3809C96.7187 28.9116 96.0693 27.8729 94.7705 27.2649C93.5216 26.6062 91.6983 26.2769 89.3004 26.2769C87.4022 26.2769 85.5538 26.4796 83.7554 26.8849C81.9571 27.2902 80.3335 27.7969 78.8848 28.4049C78.2354 27.9489 77.6859 27.2649 77.2363 26.3529C76.7867 25.3902 76.5619 24.4022 76.5619 23.3889C76.5619 22.0716 76.8617 21.0329 77.4611 20.2729C78.1106 19.4622 79.0847 18.7782 80.3835 18.2209C81.8321 17.6636 83.5306 17.2582 85.4789 17.0049C87.4771 16.7516 89.3504 16.6249 91.0988 16.6249Z" fill="black"/>
<path d="M57.988 54.5489C57.4885 54.7009 56.6892 54.8529 55.5902 55.0049C54.5411 55.1569 53.4422 55.2329 52.2932 55.2329C51.1942 55.2329 50.1951 55.1569 49.2959 55.0049C48.4467 54.8529 47.7223 54.5489 47.1228 54.0929C46.5234 53.6369 46.0488 53.0289 45.6991 52.2689C45.3994 51.4582 45.2495 50.4196 45.2495 49.1529V26.3529C45.2495 25.1876 45.4494 24.1996 45.849 23.3889C46.2986 22.5276 46.9231 21.7676 47.7223 21.1089C48.5216 20.4502 49.4957 19.8676 50.6446 19.3609C51.8436 18.8036 53.1174 18.3222 54.4662 17.9169C55.815 17.5116 57.2138 17.2076 58.6624 17.0049C60.1112 16.7516 61.5598 16.6249 63.0085 16.6249C65.4063 16.6249 67.3047 17.1062 68.7033 18.0689C70.1021 18.9809 70.8015 20.5009 70.8015 22.6289C70.8015 23.3382 70.7016 24.0476 70.5017 24.7569C70.302 25.4156 70.0521 26.0236 69.7524 26.5809C68.7034 26.5809 67.6294 26.6316 66.5303 26.7329C65.4314 26.8342 64.3573 26.9862 63.3082 27.1889C62.2592 27.3916 61.2601 27.6196 60.3109 27.8729C59.4117 28.0756 58.6375 28.3289 57.988 28.6329V54.5489Z" fill="black"/>
<path fill-rule="evenodd" clip-rule="evenodd" d="M26.6757 29.393C25.5766 30.3557 23.9781 30.837 21.88 30.837H17.9086V19.057C18.4581 18.9557 18.9826 18.905 19.4822 18.905C20.0317 18.8543 20.706 18.829 21.5054 18.829C23.7533 18.829 25.4518 19.361 26.6008 20.425C27.7997 21.4383 28.3991 22.9077 28.3991 24.833C28.3991 26.8597 27.8246 28.3797 26.6757 29.393ZM15.3609 55.689C16.5598 55.537 17.4341 55.385 17.9835 55.233V41.249H23.3037C26.351 41.249 29.0235 40.869 31.3215 40.109C33.6693 39.2983 35.5926 38.1837 37.0913 36.765C38.6399 35.2957 39.7889 33.573 40.5382 31.597C41.3375 29.5703 41.7371 27.3157 41.7371 24.833C41.7371 19.7157 39.9138 15.6623 36.267 12.673C32.6203 9.68365 27.3501 8.189 20.4563 8.189C18.2583 8.189 16.0602 8.341 13.8623 8.64498C11.7142 8.89833 9.79092 9.329 8.09245 9.937C7.09336 10.2917 6.29408 10.773 5.69462 11.381C5.14512 11.9383 4.87036 12.749 4.87036 13.813V18.5769C5.15577 18.3735 5.5036 18.254 5.87892 18.254C6.84886 18.254 7.63514 19.0515 7.63514 20.0353C7.63514 21.019 6.84886 21.8165 5.87892 21.8165C5.5036 21.8165 5.15577 21.6972 4.87036 21.4937V28.1056C5.15577 27.9022 5.5036 27.7827 5.87892 27.7827C6.84886 27.7827 7.63514 28.5803 7.63514 29.564C7.63514 30.5477 6.84886 31.3452 5.87892 31.3452C5.5036 31.3452 5.15577 31.2259 4.87036 31.0225V37.6344C5.15577 37.4309 5.5036 37.3115 5.87892 37.3115C6.84886 37.3115 7.63514 38.109 7.63514 39.0927C7.63514 40.0765 6.84886 40.874 5.87892 40.874C5.5036 40.874 5.15577 40.7546 4.87036 40.5512V49.609C4.87036 50.9263 5.02023 51.9903 5.31996 52.801C5.61968 53.6117 6.06928 54.245 6.66874 54.701C7.2682 55.157 7.99255 55.461 8.84178 55.613C9.74097 55.8157 10.765 55.917 11.914 55.917C13.0629 55.917 14.212 55.841 15.3609 55.689Z" fill="black"/>
<path d="M5.80534 21.2661C6.45185 21.2704 6.98329 20.7422 6.99235 20.0863C7.0014 19.4303 6.48463 18.8952 5.83813 18.891L5.80534 21.2661ZM3.50329 26.0359L4.67395 26.0385L4.69664 23.6634L3.52596 23.6607L3.50329 26.0359ZM5.83813 18.891C5.31701 18.8875 4.66412 18.8659 4.11415 18.8728C3.54478 18.8799 2.92847 18.9158 2.35924 19.0572C1.78511 19.1998 1.16077 19.4739 0.687836 20.0323C0.202574 20.6051 0.0014783 21.3284 0.0021992 22.1187L2.34365 22.0988C2.3433 21.7192 2.43384 21.602 2.45886 21.5725C2.49621 21.5284 2.6008 21.4383 2.90019 21.3639C3.20449 21.2883 3.60632 21.2543 4.12565 21.2478C4.66436 21.241 5.17071 21.2619 5.80534 21.2661L5.83813 18.891ZM0.0021992 22.1187C0.00343347 23.4718 0.344211 24.5481 1.12857 25.2487C1.88696 25.9262 2.82519 26.0344 3.50329 26.0359L3.52596 23.6607C3.03447 23.6596 2.80291 23.5678 2.68338 23.4611C2.58982 23.3775 2.34455 23.0853 2.34365 22.0988L0.0021992 22.1187Z" fill="#EF797E"/>
<path d="M5.81755 30.7948C6.46405 30.7991 6.9955 30.2709 7.00455 29.6151C7.01361 28.9591 6.49684 28.424 5.85034 28.4197L5.81755 30.7948ZM3.5155 35.5647L4.68616 35.5673L4.70884 33.1922L3.53817 33.1896L3.5155 35.5647ZM5.85034 28.4197C5.32922 28.4163 4.67631 28.3947 4.12636 28.4016C3.55699 28.4087 2.94068 28.4445 2.37145 28.586C1.79732 28.7286 1.17298 29.0027 0.700043 29.561C0.214781 30.1339 0.0136854 30.8572 0.0144062 31.6475L2.35586 31.6275C2.35551 31.248 2.44605 31.1308 2.47107 31.1012C2.50842 31.0572 2.613 30.967 2.91239 30.8927C3.2167 30.817 3.61853 30.7831 4.13786 30.7766C4.67657 30.7698 5.18292 30.7907 5.81755 30.7948L5.85034 28.4197ZM0.0144062 31.6475C0.0156405 33.0005 0.356418 34.0769 1.14078 34.7775C1.89917 35.4549 2.8374 35.5631 3.5155 35.5647L3.53817 33.1896C3.04666 33.1884 2.81512 33.0966 2.69559 32.9898C2.60203 32.9062 2.35676 32.6141 2.35586 31.6275L0.0144062 31.6475Z" fill="#EF797E"/>
<path d="M5.82976 40.3236C6.47626 40.3279 7.00771 39.7997 7.01676 39.1438C7.02582 38.4878 6.50905 37.9527 5.86254 37.9485L5.82976 40.3236ZM3.52769 45.0934L4.69837 45.096L4.72105 42.7209L3.55038 42.7183L3.52769 45.0934ZM5.86254 37.9485C5.34143 37.945 4.68852 37.9234 4.13856 37.9303C3.5692 37.9374 2.95289 37.9733 2.38366 38.1147C1.80952 38.2573 1.18518 38.5314 0.71225 39.0898C0.226988 39.6626 0.0258923 40.3859 0.0266133 41.1762L2.36806 41.1563C2.36772 40.7767 2.45826 40.6595 2.48326 40.63C2.52061 40.5859 2.62521 40.4958 2.9246 40.4214C3.2289 40.3458 3.63074 40.3118 4.15005 40.3053C4.68878 40.2985 5.19511 40.3194 5.82976 40.3236L5.86254 37.9485ZM0.0266133 41.1762C0.0278475 42.5293 0.368625 43.6056 1.15298 44.3062C1.91138 44.9837 2.84961 45.0919 3.52769 45.0934L3.55038 42.7183C3.05887 42.7171 2.82733 42.6253 2.7078 42.5186C2.61424 42.435 2.36896 42.1428 2.36806 41.1563L0.0266133 41.1762Z" fill="#EF797E"/>
</g>
<defs>
<clipPath id="clip0_304_97">
<rect width="329" height="57" fill="white"/>
</clipPath>
</defs>
</svg>
